<?xml version="1.0" encoding="utf-8"?>
<!-- Generator: Adobe Illustrator 21.0.2, SVG Export Plug-In . SVG Version: 6.00 Build 0)  -->
<svg version="1.1" id="Layer_1" xmlns="http://www.w3.org/2000/svg" xmlns:xlink="http://www.w3.org/1999/xlink" x="0px" y="0px"
	 viewBox="0 0 512 512" style="enable-background:new 0 0 512 512;" xml:space="preserve">
<style type="text/css">
	.st0{display:none;fill:#41B883;}
	.st1{fill:#FFFFFF;}
	.st2{fill:#E6E9EE;}
	.st3{fill:#4CDBC4;}
	.st4{fill:#FF7058;}
</style>
<g>
	<circle class="st0" cx="256" cy="256" r="256"/>
	<polygon class="st1" points="330.1,87.3 330.1,141.6 384.4,141.6 384.4,424.7 127.6,424.7 127.6,87.3 	"/>
	<polygon class="st2" points="330.1,87.3 384.4,141.6 330.1,141.6 	"/>
	<g>
		<path class="st3" d="M200.4,379.3c0,12-9.6,21.6-21.6,21.6c-12,0-21.6-9.6-21.6-21.6c0-12,9.6-21.6,21.6-21.6v21.6H200.4z"/>
		<path class="st3" d="M205.3,374.4h-21.6v-21.6C195.7,352.7,205.3,362.5,205.3,374.4z"/>
		<path class="st3" d="M200.4,311.4c0,12-9.6,21.6-21.6,21.6c-12,0-21.6-9.6-21.6-21.6s9.6-21.6,21.6-21.6v21.6H200.4z"/>
		<path class="st3" d="M205.3,306.5h-21.6v-21.6C195.7,284.9,205.3,294.5,205.3,306.5z"/>
	</g>
	<g>
		<rect x="234.1" y="290.3" class="st2" width="117.6" height="11.5"/>
		<rect x="234.1" y="314.4" class="st2" width="89.3" height="11.5"/>
		<rect x="234.1" y="357.9" class="st2" width="117.6" height="11.5"/>
		<rect x="234.1" y="382" class="st2" width="89.3" height="11.5"/>
	</g>
	<g>
		<rect x="200.1" y="194.8" class="st4" width="22.1" height="39.5"/>
		<rect x="244.9" y="147.1" class="st4" width="22.1" height="87.1"/>
		<rect x="289.8" y="173.4" class="st4" width="22.1" height="60.9"/>
	</g>
</g>
</svg>
