<?xml version="1.0" encoding="iso-8859-1"?>
<!-- Generator: Adobe Illustrator 19.0.0, SVG Export Plug-In . SVG Version: 6.00 Build 0)  -->
<svg version="1.1" id="Capa_1" xmlns="http://www.w3.org/2000/svg" xmlns:xlink="http://www.w3.org/1999/xlink" x="0px" y="0px"
	 viewBox="0 0 511.664 511.664" style="enable-background:new 0 0 511.664 511.664;" xml:space="preserve">
<path style="fill:#E8EAE9;" d="M362.153,191.664l7.467,3.2c0,0,5.333,5.333,7.467,12.8c2.133,7.467,16,49.067,19.2,58.667
	c3.2,9.6,16,60.8,19.2,68.267c3.2,6.4,4.267,17.067,2.133,25.6c-2.133,8.533-5.333,29.867-7.467,40.533
	c-2.133,10.667-10.667,50.133-11.733,58.667c-1.067,7.467-7.467,32-7.467,32s-10.667-19.2-29.867-24.533l7.467-24.533
	c0,0-8.533-38.4-8.533-45.867s3.2-8.533,4.267-16s1.067-11.733,1.067-16c-1.067-4.267-3.2-4.267-3.2-9.6s-23.467-38.4-23.467-38.4
	L362.153,191.664z"/>
<path style="fill:#415A6B;" d="M182.953,444.464c0,0-11.733,38.4-8.533,67.2h208c0,0,8.533-18.133,1.067-34.133
	s-16-23.467-18.133-29.867c-1.067-6.4-2.133-20.267-2.133-20.267L182.953,444.464z"/>
<g>
	<path style="fill:#FFD15C;" d="M292.82,102.064c0,0,1.067,10.667-5.333,23.467v62.933H222.42l-2.133-45.867v-23.467
		c0,0-10.667-27.733-10.667-51.2s4.267-58.667,43.733-59.733c40.533-1.067,39.467,51.2,39.467,62.933S292.82,102.064,292.82,102.064
		z"/>
	
		<ellipse transform="matrix(0.1489 -0.9889 0.9889 0.1489 164.9413 365.7595)" style="fill:#FFD15C;" cx="294.948" cy="87.062" rx="14.934" ry="7.467"/>
	
		<ellipse transform="matrix(0.1489 0.9889 -0.9889 0.1489 265.3269 -134.4706)" style="fill:#FFD15C;" cx="210.78" cy="86.899" rx="14.934" ry="7.467"/>
</g>
<path style="fill:#CED6E0;" d="M124.286,222.598c0,0,10.667-18.133,28.8-25.6c17.067-7.467,23.467-14.933,35.2-21.333
	c11.733-6.4,24.533-13.867,24.533-13.867l48,12.8h8.533l21.333-18.133c0,0,7.467,2.133,29.867,10.667
	c23.467,8.533,35.2,12.8,40.533,17.067s8.533,9.6,8.533,9.6s-11.733,37.333-14.933,78.933c0,0-4.267,41.6,3.2,89.6
	s11.733,70.4,11.733,70.4s-33.067,17.067-57.6,19.2s-29.867,2.133-61.867,5.333c-32,3.2-69.333-5.333-77.867-10.667
	c-8.533-5.333-22.4-55.467-22.4-55.467s20.267-44.8,16-78.933S124.286,222.598,124.286,222.598z"/>
<g>
	<path style="fill:#415A6B;" d="M260.82,175.664h5.333l19.2-1.067c-6.4,9.6-12.8,18.133-13.867,25.6
		c-4.267-2.133-8.533-1.067-12.8,2.133c-2.133-5.333-7.467-11.733-14.933-16L260.82,175.664z"/>
	<path style="fill:#415A6B;" d="M271.486,199.131c0,0,2.133,19.2,11.733,58.667c9.6,39.467,9.6,166.4,9.6,166.4l-23.467,19.2
		l-18.133-21.333c0,0,8.533-144,5.333-170.667c-3.2-25.6,2.133-51.2,2.133-51.2l2.133-9.6L271.486,199.131z"/>
</g>
<path style="fill:#66C6B9;" d="M358.953,338.864L248.02,443.398c-3.2,2.133-7.467,2.133-9.6,0l-81.067-85.333
	c-2.133-3.2-2.133-7.467,0-9.6l110.933-104.533c3.2-2.133,7.467-2.133,9.6,0l81.067,85.333
	C361.086,332.464,361.086,336.731,358.953,338.864z"/>
<rect x="187.269" y="290.325" transform="matrix(-0.7257 0.688 -0.688 -0.7257 682.1985 418.5358)" style="fill:#FFFFFF;" width="140.799" height="109.866"/>
<rect x="185.274" y="343.825" transform="matrix(-0.7257 0.688 -0.688 -0.7257 583.5142 464.6144)" style="fill:#55C0EB;" width="27.733" height="9.6"/>
<rect x="196.577" y="353.574" transform="matrix(-0.7257 0.688 -0.688 -0.7257 619.8502 469.6252)" style="fill:#415A6B;" width="39.466" height="9.6"/>
<rect x="212.21" y="374.118" transform="matrix(-0.7257 0.688 -0.688 -0.7257 646.2372 500.1938)" style="fill:#FFD15C;" width="22.4" height="9.6"/>
<rect x="222.42" y="383.058" transform="matrix(-0.7257 0.688 -0.688 -0.7257 680.1328 504.5611)" style="fill:#66C6B9;" width="34.133" height="9.6"/>
<rect x="251.991" y="374.923" transform="matrix(-0.688 -0.7257 0.7257 -0.688 144.7384 857.9375)" style="fill:#F3705A;" width="9.6" height="45.866"/>
<path style="fill:#415A6B;" d="M300.286,323.931c0-7.467-3.2-14.933-7.467-20.267l-20.267,19.2L300.286,323.931z"/>
<path style="fill:#F3705A;" d="M273.62,296.198c-14.933,0-27.733,11.733-28.8,26.667c0,14.933,11.733,27.733,26.667,28.8
	l1.067-27.733L273.62,296.198z"/>
<path style="fill:#55C0EB;" d="M305.62,332.464l-27.733-1.067l-1.067,27.733C292.82,360.198,305.62,347.398,305.62,332.464z"/>
<path style="fill:#FFD15C;" d="M292.82,304.731c-5.333-5.333-11.733-8.533-19.2-8.533l-1.067,27.733L292.82,304.731z"/>
<path style="fill:#415A6B;" d="M213.886,92.464h3.2c-1.067-5.333-2.133-13.867-1.067-19.2c1.067-7.467,2.133-11.733,0-20.267
	c-2.133-8.533-1.067-23.467,10.667-24.533s41.6,1.067,49.067,0s11.733,12.8,10.667,19.2c-2.133,7.467,3.2,19.2,4.267,24.533
	c0,4.267,0,12.8,0,19.2h4.267c0-5.333,0-14.933,1.067-20.267c3.2-7.467,20.267-53.333-5.333-50.133c0,0-4.267-25.6-52.267-20.267
	s-36.267,69.333-33.067,74.667C207.486,80.731,212.82,83.931,213.886,92.464z"/>
<path style="fill:#F7B64C;" d="M254.42,143.664c-16,0-34.133-24.533-34.133-24.533v23.467l1.067,19.2
	c59.733-7.467,66.133-36.267,66.133-36.267C283.22,134.064,269.353,143.664,254.42,143.664z"/>
<g>
	<path style="fill:#F3F3F3;" d="M287.486,143.664c0,0,0,17.067-21.333,30.933c0,0,21.333,10.667,29.867,21.333
		c0,0,1.067-24.533-1.067-32S287.486,143.664,287.486,143.664z"/>
	<path style="fill:#F3F3F3;" d="M260.82,175.664c0,0-20.267,14.933-28.8,27.733c0,0-20.267-25.6-20.267-36.267
		s9.6-27.733,9.6-27.733s0,8.533,7.467,16C235.22,161.798,260.82,175.664,260.82,175.664z"/>
</g>
<path style="fill:#FFD15C;" d="M245.886,372.998c0,0,5.333,0,9.6-4.267c3.2-3.2,14.933-8.533,20.267-10.667
	c2.133-1.067,3.2-1.067,5.333-1.067c4.267,0,11.733,1.067,13.867,1.067c4.267,0,8.533,3.2,8.533,3.2l10.667,1.067
	c0,0,6.4,13.867-18.133,10.667h-6.4c0,0,4.267,3.2,6.4,5.333c2.133,2.133,10.667,1.067,13.867,1.067c3.2,0,6.4,0,7.467-1.067
	s3.2-2.133,3.2-2.133s3.2,2.133,2.133,7.467c-1.067,4.267-6.4,9.6-7.467,9.6c0,0,1.067,4.267-2.133,7.467
	c-3.2,2.133-6.4,2.133-6.4,2.133s-1.067,3.2-7.467,6.4c0,0-2.133,4.267-5.333,6.4c-3.2,2.133-4.267,3.2-4.267,4.267
	s-7.467,2.133-12.8,1.067c-5.333-1.067-13.867-3.2-17.067-6.4c-3.2-3.2-7.467-5.333-16-5.333c-7.467-1.067-7.467-1.067-7.467-1.067
	C236.286,393.264,236.286,379.398,245.886,372.998z"/>
<path style="fill:#E8EAE9;" d="M122.153,225.798c3.2-7.467,10.667-10.667,18.133-7.467c7.467,4.267,18.133,12.8,25.6,29.867
	c11.733,32,7.467,51.2,7.467,60.8c-1.067,10.667-18.133,42.667-18.133,42.667s2.133,7.467-3.2,11.733c0,0,10.667,6.4,16,7.467
	c5.333,1.067,8.533,0,13.867,1.067c6.4,1.067,23.467,3.2,26.667,4.267c3.2,1.067,36.267-2.133,36.267-2.133
	s-10.667,20.267,1.067,35.2l-29.867,10.667c0,0-8.533,11.733-24.533,8.533c-14.933-3.2-21.333-4.267-33.067-6.4
	c-11.733-2.133-16,4.267-24.533,1.067c-8.533-2.133-14.933-4.267-21.333-7.467c-6.4-2.133-14.933-4.267-17.067-13.867
	c-2.133-8.533-3.2-21.333-2.133-29.867c2.133-8.533,10.667-67.2,13.867-77.867C110.42,285.531,114.686,246.064,122.153,225.798z"/>
<path style="fill:#415A6B;" d="M325.886,401.798c-5.333-1.067-9.6-4.267-13.867-7.467l-48-48l6.4-6.4l48,48
	C321.62,392.198,323.753,396.464,325.886,401.798z"/>
<path style="fill:#344A5E;" d="M265.086,337.798l3.2,3.2l-4.267,4.267l-3.2-3.2c-1.067-1.067-1.067-3.2,0-4.267l0,0
	C262.953,336.731,264.02,336.731,265.086,337.798z"/>
<path style="fill:#FFD15C;" d="M322.686,381.531c-1.067,4.267-6.4,9.6-7.467,9.6c0,0,1.067,4.267-2.133,7.467
	c-3.2,2.133-6.4,2.133-6.4,2.133s-1.067,3.2-7.467,5.333c0,0-2.133,4.267-5.333,6.4c-3.2,2.133-4.267,3.2-4.267,4.267
	c-1.067,1.067-7.467,2.133-12.8,1.067c-6.4-1.067-13.867-3.2-17.067-6.4c-1.067-1.067-2.133-1.067-3.2-2.133l32-38.4
	c0,0,4.267,3.2,6.4,5.333c2.133,1.067,10.667,1.067,13.867,1.067s6.4,0,7.467-1.067c2.133-1.067,3.2-2.133,3.2-2.133
	S323.753,377.264,322.686,381.531z"/>
<g>
</g>
<g>
</g>
<g>
</g>
<g>
</g>
<g>
</g>
<g>
</g>
<g>
</g>
<g>
</g>
<g>
</g>
<g>
</g>
<g>
</g>
<g>
</g>
<g>
</g>
<g>
</g>
<g>
</g>
</svg>
