<?xml version="1.0" encoding="utf-8"?>
<!-- Generator: Adobe Illustrator 21.0.2, SVG Export Plug-In . SVG Version: 6.00 Build 0)  -->
<svg version="1.1" id="Layer_1" xmlns="http://www.w3.org/2000/svg" xmlns:xlink="http://www.w3.org/1999/xlink" x="0px" y="0px"
	 viewBox="0 0 509.3 509.3" style="enable-background:new 0 0 509.3 509.3;" xml:space="preserve">
<style type="text/css">
	.st0{display:none;fill:#4B5AA7;}
	.st1{fill:#F1F3F7;}
	.st2{fill:#FCFCFD;}
	.st3{fill:#F0582F;}
	.st4{fill:#FBD303;}
	.st5{fill:#3688C3;}
</style>
<circle class="st0" cx="254.6" cy="254.6" r="254.6"/>
<path class="st1" d="M455,62H54.3C39,62,26.8,74.3,26.8,89.5v278.4c0,15.3,12.2,27.5,27.5,27.5h400.4c15.3,0,27.5-12.2,27.5-27.5
	V89.5C482.5,74.3,470,62,455,62z"/>
<rect x="54.3" y="129.5" class="st2" width="400.8" height="237"/>
<circle class="st3" cx="446.2" cy="97.7" r="8.8"/>
<circle class="st4" cx="415.4" cy="97.7" r="8.8"/>
<g>
	<circle class="st5" cx="384.5" cy="97.7" r="8.8"/>
	<path class="st5" d="M390.3,306.9l-26.1-7.1c-2.7-11.2-7.1-21.7-12.9-31.2l13.6-23.4c1.4-2.7,1-6.1-1-8.1l-19.3-19.3
		c-2-2-5.4-2.7-8.1-1L313,230.2c-9.5-5.8-20-10.2-31.2-12.9l-7.1-26.1c-0.7-3.1-3.4-5.1-6.4-5.1h-27.5c-3.1,0-5.8,2-6.4,5.1
		l-7.1,26.1c-11.2,2.7-21.7,7.1-31.2,12.9l-23.4-13.6c-2.7-1.4-6.1-1-8.1,1L145.1,237c-2,2-2.7,5.4-1,8.1l13.6,23.4
		c-5.8,9.5-10.2,20-12.9,31.2l-26.1,7.1c-3.1,0.7-5.1,3.4-5.1,6.4v27.5c0,3.1,2,5.8,5.1,6.4l26.1,7.1c2.7,11.2,7.1,21.7,12.9,31.2
		l-13.6,23.4c-1.4,2.7-1,6.1,1,8.1l19.3,19.3c2,2,5.4,2.7,8.1,1l23.4-13.6c9.5,5.8,20,10.2,31.2,12.9l7.1,26.1
		c0.7,3.1,3.4,5.1,6.4,5.1h27.5c3.1,0,5.8-2,6.4-5.1l7.1-26.1c11.2-2.7,21.7-7.1,31.2-12.9l23.4,13.6c2.7,1.4,6.1,1,8.1-1l19.3-19.3
		c2-2,2.7-5.4,1-8.1l-13.6-23.4c5.8-9.5,10.2-20,12.9-31.2l26.1-7.1c3.1-0.7,5.1-3.4,5.1-6.4v-27.5
		C395.4,310.6,393.3,307.9,390.3,306.9z M254.6,377.4c-27.8,0-50.2-22.4-50.2-50.2c0-27.8,22.4-50.2,50.2-50.2s50.2,22.4,50.2,50.2
		S282.4,377.4,254.6,377.4z"/>
</g>
</svg>
