<?xml version="1.0" encoding="utf-8"?>
<!-- Generator: Adobe Illustrator 21.0.2, SVG Export Plug-In . SVG Version: 6.00 Build 0)  -->
<svg version="1.1" id="Layer_1" xmlns="http://www.w3.org/2000/svg" xmlns:xlink="http://www.w3.org/1999/xlink" x="0px" y="0px"
	 viewBox="0 0 512 512" style="enable-background:new 0 0 512 512;" xml:space="preserve">
<style type="text/css">
	.st0{display:none;fill:#41B883;}
	.st1{fill:#FFFFFF;}
	.st2{fill:#FCFCFC;}
</style>
<g>
	<circle class="st0" cx="256" cy="256" r="256"/>
	<g>
		<path class="st1" d="M289.1,73.4h-66.1c-10.5,0-18.5,8.5-18.5,18.5V158c0,10.5,8.5,18.5,18.5,18.5h66.1c10.5,0,18.5-8.5,18.5-18.5
			V92.3C307.6,81.8,299.5,73.4,289.1,73.4z"/>
		<path class="st1" d="M289.1,204.4h-66.1c-10.5,0-18.5,8.5-18.5,18.5v66.1c0,10.5,8.5,18.5,18.5,18.5h66.1
			c10.5,0,18.5-8.5,18.5-18.5v-66.1C307.6,212.5,299.5,204.4,289.1,204.4z"/>
		<path class="st1" d="M289.1,335h-66.1c-10.5,0-18.5,8.5-18.5,18.5v66.1c0,10.5,8.5,18.5,18.5,18.5h66.1c10.5,0,18.5-8.5,18.5-18.5
			v-66.1C307.6,343.5,299.5,335,289.1,335z"/>
	</g>
	<g>
		<path class="st2" d="M370.9,260V252c30.6,0,55.2-25,55.2-55.2v-12.5c0-30.6-25-55.2-55.2-55.2h-41.5v-7.7h41.5
			c34.7,0,62.9,28.2,62.9,62.9v12.5C434.2,231.4,406,260,370.9,260z"/>
		<polygon class="st2" points="373.3,233 329.4,256 373.3,279 		"/>
		<path class="st2" d="M141.1,387.4c-34.7,0-62.9-28.2-62.9-62.9V312c0-34.7,28.2-62.9,62.9-62.9h41.5v7.7h-41.5
			c-30.6,0-55.2,25-55.2,55.2v12.5c0,30.6,25,55.2,55.2,55.2V387.4z"/>
		<polygon class="st2" points="138.7,360.4 182.6,383.4 138.7,406.4 		"/>
		<polygon class="st2" points="138.7,102.4 182.6,125.4 138.7,148 		"/>
	</g>
</g>
</svg>
