<?xml version="1.0" encoding="utf-8"?>
<!-- Generator: Adobe Illustrator 21.0.2, SVG Export Plug-In . SVG Version: 6.00 Build 0)  -->
<svg version="1.1" id="Layer_1" xmlns="http://www.w3.org/2000/svg" xmlns:xlink="http://www.w3.org/1999/xlink" x="0px" y="0px"
	 viewBox="0 0 512 512" style="enable-background:new 0 0 512 512;" xml:space="preserve">
<style type="text/css">
	.st0{display:none;fill:#324A5E;}
	.st1{fill:#FF7058;}
	.st2{fill:#4CDBC4;}
	.st3{fill:#54C0EB;}
	.st4{fill:#FFD05B;}
	.st5{fill:#FFFFFF;}
	.st6{fill:#CED3D3;}
	.st7{fill:#CED5E0;}
</style>
<g>
	<circle class="st0" cx="256" cy="256" r="256"/>
	<path class="st1" d="M363.1,167.1h26.1c1.7,0,3-1.4,3-3v-41.8c0-1.7-1.4-3-3-3h-26.1c-1.7,0-3,1.4-3,3v41.8
		C360.2,165.7,361.4,167.1,363.1,167.1z"/>
	<path class="st2" d="M363.1,228.4h26.1c1.7,0,3-1.4,3-3v-41.8c0-1.7-1.4-3-3-3h-26.1c-1.7,0-3,1.4-3,3v41.8
		C360.2,227.1,361.4,228.4,363.1,228.4z"/>
	<path class="st3" d="M363.1,289.8h26.1c1.7,0,3-1.4,3-3V245c0-1.7-1.4-3-3-3h-26.1c-1.7,0-3,1.4-3,3v41.8
		C360.2,288.4,361.4,289.8,363.1,289.8z"/>
	<path class="st4" d="M363.1,351h26.1c1.7,0,3-1.4,3-3v-41.8c0-1.7-1.4-3-3-3h-26.1c-1.7,0-3,1.4-3,3v41.8
		C360.2,349.7,361.4,351,363.1,351z"/>
	<path class="st5" d="M368.4,92.7H159.8v326.6h208.6c1.4,0,2.5-1.2,2.5-2.5V95.2C371,93.8,369.8,92.7,368.4,92.7z"/>
	<path class="st6" d="M162.2,92.7h-26.8c-8.7,0-15.7,7-15.7,15.7v295.2c0,8.7,7,15.7,15.7,15.7h26.8V92.7z"/>
	<g>
		<circle class="st5" cx="141" cy="165.7" r="9.9"/>
		<circle class="st5" cx="141" cy="346.3" r="9.9"/>
	</g>
	<g>
		<rect x="190.6" y="132.3" class="st7" width="145.6" height="16"/>
		<rect x="190.6" y="175.5" class="st7" width="145.6" height="16"/>
		<rect x="190.6" y="218.8" class="st7" width="145.6" height="16"/>
		<rect x="190.6" y="262.1" class="st7" width="98.2" height="16"/>
	</g>
</g>
</svg>
