<?xml version="1.0" encoding="utf-8"?>
<!-- Generator: Adobe Illustrator 21.0.2, SVG Export Plug-In . SVG Version: 6.00 Build 0)  -->
<svg version="1.1" id="Capa_1" xmlns="http://www.w3.org/2000/svg" xmlns:xlink="http://www.w3.org/1999/xlink" x="0px" y="0px"
	 viewBox="0 0 469 512" style="enable-background:new 0 0 469 512;" xml:space="preserve">
<style type="text/css">
	.st0{display:none;fill:#41B883;}
	.st1{fill:#4292CE;}
	.st2{fill:#3688C3;}
	.st3{fill:#E4DFDF;}
	.st4{fill:#41B883;}
	.st5{fill:#FFFFFF;}
</style>
<g>
	<circle class="st0" cx="213" cy="256" r="256"/>
	<path class="st1" d="M5.8,406.4c6.4,8.8,13.4,17.2,20.9,25.2c10.9,11.6,22.9,22.2,35.9,31.6l37.1-37.1c7.8-7.8,11.8-18.1,11.8-28.4
		s-3.9-20.5-11.8-28.4c-15.7-15.7-41.1-15.7-56.7,0L5.8,406.4z"/>
	<path class="st2" d="M62.6,463.2c-8.8-6.4-17.2-13.4-25.2-20.9l39.2-39.2c11.6-11.6,14.6-28.4,9.1-42.8c5.1,2,9.9,5,13.9,9.1
		c7.8,7.8,11.7,18.1,11.7,28.4s-3.9,20.5-11.7,28.4L62.6,463.2z"/>
	<circle class="st3" cx="270.1" cy="198.9" r="198.9"/>
	<path class="st4" d="M157.1,311.9c4.7,4.7,9.7,9.1,14.9,13.1c57.6,44.9,138.9,44.9,196.4,0c5.2-4,10.1-8.4,14.8-13.1
		c62.5-62.4,62.5-163.7,0-226.1c-62.4-62.4-163.7-62.4-226.1,0C94.6,148.2,94.6,249.5,157.1,311.9z"/>
	<path class="st5" d="M288.3,110.5c0,8.6-8,16.4-18.2,16.4c-10.1,0-18.2-7.7-18.2-16.4c0-8.9,8-16.4,18.2-16.4
		S288.3,101.6,288.3,110.5z M285.9,172.5v120.6c0,5.1-6.9,10.4-15.8,10.4s-15.5-5.4-15.5-10.4V172.5c0-6,6.6-10.1,15.5-10.1
		C279.1,162.4,285.9,166.5,285.9,172.5z"/>
	<path class="st0" d="M223.6,311.9c-62.4-62.4-62.4-163.7,0-226.1c22.7-22.7,50.6-37.2,79.8-43.3C252.3,31.6,196.8,46,157.1,85.8
		c-62.4,62.4-62.4,163.7,0,226.1c39.7,39.7,95.2,54.2,146.3,43.3C274.2,349.1,246.3,334.6,223.6,311.9z"/>
	<path class="st1" d="M92.5,302.4l74.2,74.2c9.8,9.8,9.8,25.8,0,35.6l0,0c-9.8,9.8-25.8,9.8-35.6,0L56.8,338
		c-9.8-9.8-9.8-25.8,0-35.6l0,0C66.7,292.5,82.6,292.5,92.5,302.4z"/>
	<path class="st2" d="M136.2,381.8L136.2,381.8c9.8-9.8,9.8-25.8,0-35.6l30.4,30.4c9.8,9.8,9.8,25.8,0,35.6l0,0
		c-9.8,9.8-25.8,9.8-35.6,0l-30.4-30.4C110.4,391.6,126.4,391.6,136.2,381.8z"/>
	<circle class="st0" cx="367.8" cy="174.8" r="29.6"/>
</g>
</svg>
