<?xml version="1.0" encoding="utf-8"?>
<!-- Generator: Adobe Illustrator 21.0.2, SVG Export Plug-In . SVG Version: 6.00 Build 0)  -->
<svg version="1.1" id="Layer_1" xmlns="http://www.w3.org/2000/svg" xmlns:xlink="http://www.w3.org/1999/xlink" x="0px" y="0px"
	 viewBox="0 0 512 512" style="enable-background:new 0 0 512 512;" xml:space="preserve">
<style type="text/css">
	.st0{display:none;fill:#41B883;}
	.st1{fill:#FFFFFF;}
</style>
<g>
	<path class="st0" d="M512,256C512,114.6,397.4,0,256,0C114.6,0,0,114.6,0,256c0,141.4,114.6,256,256,256
		C397.4,512,512,397.4,512,256z"/>
	<path class="st1" d="M142.6,179.1c0-14.4,4.6-28.9,13.8-43.6c9.2-14.7,22.7-26.9,40.4-36.6c17.7-9.7,38.3-14.5,61.9-14.5
		c21.9,0,41.3,4,58,12.1c16.8,8.1,29.7,19.1,38.9,33c9.1,13.9,13.7,29,13.7,45.3c0,12.8-2.6,24.1-7.8,33.8
		c-5.2,9.7-11.4,18-18.6,25.1c-7.2,7-20.1,18.9-38.7,35.5c-5.1,4.7-9.3,8.8-12.4,12.4c-3.1,3.6-5.4,6.8-6.9,9.7
		c-1.5,2.9-2.7,5.9-3.5,8.8c-0.8,2.9-2.1,8.1-3.7,15.5c-2.9,15.7-11.9,23.6-27,23.6c-7.9,0-14.5-2.6-19.8-7.7
		c-5.4-5.1-8-12.8-8-22.9c0-12.7,2-23.7,5.9-33c3.9-9.3,9.1-17.5,15.6-24.5c6.5-7,15.3-15.4,26.3-25.1c9.7-8.5,16.7-14.9,21-19.2
		c4.3-4.3,7.9-9.1,10.9-14.4c2.9-5.3,4.4-11,4.4-17.2c0-12.1-4.5-22.3-13.5-30.6c-9-8.3-20.6-12.5-34.8-12.5
		c-16.6,0-28.9,4.2-36.7,12.6c-7.9,8.4-14.5,20.7-20,37.1c-5.1,17.1-14.9,25.6-29.3,25.6c-8.5,0-15.6-3-21.4-9
		C145.5,192.6,142.6,186.1,142.6,179.1z M253.3,427.6c-9.2,0-17.3-3-24.1-9c-6.9-6-10.3-14.3-10.3-25.1c0-9.5,3.3-17.5,10-24
		c6.6-6.5,14.8-9.7,24.5-9.7c9.5,0,17.5,3.3,24,9.7c6.5,6.5,9.7,14.5,9.7,24c0,10.6-3.4,18.9-10.2,24.9
		C270.1,424.6,262.2,427.6,253.3,427.6z"/>
</g>
</svg>
