<?xml version="1.0" encoding="utf-8"?>
<!-- Generator: Adobe Illustrator 21.0.2, SVG Export Plug-In . SVG Version: 6.00 Build 0)  -->
<svg version="1.1" id="Layer_1" xmlns="http://www.w3.org/2000/svg" xmlns:xlink="http://www.w3.org/1999/xlink" x="0px" y="0px"
	 viewBox="0 0 512 512" style="enable-background:new 0 0 512 512;" xml:space="preserve">
<style type="text/css">
	.st0{display:none;fill:#41B883;}
	.st1{fill:#F3E8A6;}
	.st2{fill:#E6E9EE;}
	.st3{fill:#FFFFFF;}
	.st4{fill:#FF7058;}
	.st5{fill:#F1543F;}
</style>
<g>
	<circle class="st0" cx="256" cy="256" r="256"/>
	<path class="st1" d="M306.8,274.5L306.8,274.5c-10.9,57.2-45.6,60.9-50.8,60.9s-39.9-3.6-50.8-61.3l0,0l4-14.1
		c12.9,16.5,29,28.2,46.8,28.2s33.9-11.7,46.8-28.2L306.8,274.5z"/>
	<path class="st2" d="M304.4,266.1c-12.9,17.7-29.8,30.2-48.4,30.2s-35.5-12.5-48.4-30.2l1.6-5.6c12.9,16.5,29,28.2,46.8,28.2
		s33.9-11.7,46.8-28.2L304.4,266.1z"/>
	<path class="st3" d="M406,338.6c-94.3-32.3-99.2-64.5-99.2-64.5c-10.9,57.7-45.6,61.3-50.8,61.3s-39.9-3.6-50.8-61.3
		c0,0-1.2,30.2-99.2,64.5c0,0-24.6,23-35.5,93.9c46.8,48.8,112.5,79.4,185,79.4c73,0,138.7-30.6,185-79.4
		C430.6,361.6,406,338.6,406,338.6z"/>
	<path class="st4" d="M358,318.9c-8.5-4.4-15.7-8.5-21.8-12.1l-8.5,119.7H184.2l-8.5-119.7c-6,4-12.9,8.1-21.8,12.1
		c6.9,50.8-12.5,166.1-12.5,166.1c34.3,17.3,73.4,27,114.5,27s79.8-9.7,114.5-27C370.5,485,351.1,369.7,358,318.9z"/>
	<path class="st1" d="M322.9,194.7c2.8,12.9-2.8,34.3-3.2,36.3l0,0c-12.9,30.6-36.7,57.2-63.7,57.2s-50.8-26.6-63.7-57.2l0,0
		c-0.4-1.6-6-23.4-3.2-36.7h133.8L322.9,194.7L322.9,194.7z"/>
	<g>
		<path class="st3" d="M319.7,231.4c0,0,6.5-23,3.2-36.7h12.5C335.4,194.7,332.2,218.9,319.7,231.4z"/>
		<path class="st3" d="M192.3,231.4c-12.5-12.5-15.7-36.7-15.7-36.7h12.5C185.9,208.4,192.3,231.4,192.3,231.4z"/>
	</g>
	<g>
		<path class="st5" d="M208,71l15.3,96.8h-53.6c-2-7.3-2.8-14.5-2.8-22.6C166.9,114.1,183.4,86.7,208,71z"/>
		<path class="st5" d="M345.1,145.5c0,7.7-1.2,15.3-3.2,22.6h-53.2L304,71.4C328.6,86.7,345.1,114.1,345.1,145.5z"/>
	</g>
	<path class="st4" d="M342.7,167.7h-54L304,71c1.6-10.1-6-19.4-16.5-19.4h-62.9c-10.1,0-18.1,9.3-16.5,19.4l15.3,96.8h-54
		c-7.3,0-13.3,6-13.3,13.3c0,7.3,6,13.3,13.3,13.3h173.4c7.3,0,13.3-6,13.3-13.3C356,173.8,349.9,167.7,342.7,167.7z"/>
</g>
</svg>
