<?xml version="1.0" encoding="iso-8859-1"?>
<!-- Generator: Adobe Illustrator 19.0.0, SVG Export Plug-In . SVG Version: 6.00 Build 0)  -->
<svg version="1.1" id="Capa_1" xmlns="http://www.w3.org/2000/svg" xmlns:xlink="http://www.w3.org/1999/xlink" x="0px" y="0px"
	 viewBox="0 0 512 512" style="enable-background:new 0 0 512 512;" xml:space="preserve">
<path style="fill:#F2F2F0;" d="M286.01,376.45v49.88H22.33c-4.41,0-8-3.58-8-8v-41.88c0-23.4,15.95-43.78,38.65-49.43l70.28-17.44
	h53.83l57.64,14.31l12.63,3.13C270.07,332.67,286.01,353.05,286.01,376.45z"/>
<polygon style="fill:#00C3FF;" points="168.06,426.32 132.3,426.32 139.43,374.59 141.4,360.33 158.96,360.33 160.93,374.59 "/>
<polygon style="fill:#00AAF0;" points="160.93,374.59 139.43,374.59 141.4,360.33 158.96,360.33 "/>
<g>
	<path style="fill:#E5E5DA;" d="M286.014,376.445v49.882h-76.467v-49.882c0-20.996,9.632-40.086,25.182-52.556l12.635,3.134
		C270.069,332.667,286.014,353.049,286.014,376.445z"/>
	<path style="fill:#E5E5DA;" d="M49.443,328.049c-13.025,11.881-21.232,31.604-21.232,48.392v49.882h-5.872c-4.418,0-8-3.582-8-8
		v-41.882C14.339,354.284,28.635,334.825,49.443,328.049z"/>
</g>
<polygon style="fill:#00C3FF;" points="138.959,365.72 127.74,346.289 138.959,326.857 161.396,326.857 172.615,346.289 
	161.396,365.72 "/>
<g>
	<rect x="121.88" y="265.87" style="fill:#F7C9A4;" width="56.6" height="52.43"/>
	<path style="fill:#F7C9A4;" d="M238.605,215.157c0,10.105-7.02,18.572-16.442,20.778c-1.577,0.379-3.214,0.576-4.905,0.576
		c-11.795,0-21.355-9.559-21.355-21.355c0-11.788,9.559-21.347,21.355-21.347c1.759,0,3.464,0.212,5.094,0.614
		C231.684,196.706,238.605,205.128,238.605,215.157z"/>
	<path style="fill:#F7C9A4;" d="M104.459,215.157c0,11.795-9.559,21.355-21.355,21.355c-1.691,0-3.335-0.197-4.912-0.576
		c-9.43-2.214-16.442-10.673-16.442-20.778c0-10.029,6.921-18.444,16.253-20.725c1.63-0.409,3.343-0.622,5.102-0.622
		C94.9,193.81,104.459,203.369,104.459,215.157z"/>
</g>
<path style="fill:#FFD9B6;" d="M209.306,154.133v74.873c0,32.657-26.471,59.129-59.129,59.129s-59.129-26.471-59.129-59.129v-74.873
	L209.306,154.133L209.306,154.133z"/>
<g>
	<path style="fill:#493030;" d="M122.481,225.967c-4.142,0-7.5-3.358-7.5-7.5v-5.223c0-4.142,3.358-7.5,7.5-7.5s7.5,3.358,7.5,7.5
		v5.223C129.981,222.609,126.624,225.967,122.481,225.967z"/>
	<path style="fill:#493030;" d="M178.273,225.967c-4.142,0-7.5-3.358-7.5-7.5v-5.223c0-4.142,3.358-7.5,7.5-7.5s7.5,3.358,7.5,7.5
		v5.223C185.773,222.609,182.416,225.967,178.273,225.967z"/>
</g>
<path style="fill:#694B4B;" d="M91.085,193.808c0,0-18.035-60.897,13.325-72.016c0,0,3.951-14.656,20.001-14.656h91.6
	c4.373,0,7.929,3.505,8,7.877c0.235,14.621-1.038,47.34-14.658,78.794l-10.267-1.719c-1.913-0.32-3.314-1.976-3.314-3.915v-9.464
	c0-1.95-1.412-3.608-3.337-3.919c-9.613-1.551-39.477-5.741-82.788-5.987c-2.204-0.013-4.002,1.767-4.002,3.97v15.362
	c0,1.956-1.425,3.62-3.357,3.922L91.085,193.808z"/>
<g>
	<path style="fill:#E5E5DA;" d="M65.19,399.67v26.66h-15v-26.66c0-4.15,3.36-7.5,7.5-7.5C61.84,392.17,65.19,395.52,65.19,399.67z"
		/>
	<path style="fill:#E5E5DA;" d="M117.571,298.569l32.606,19.645l-11.426,23.38c-2.433,4.978-9.068,6.035-12.928,2.06l-22.07-22.734
		c-2.195-2.261-2.858-5.601-1.693-8.53l3.949-9.926C107.835,297.876,113.341,296.021,117.571,298.569z"/>
	<path style="fill:#E5E5DA;" d="M182.784,298.569l-32.606,19.645l11.426,23.38c2.433,4.978,9.068,6.035,12.928,2.06l22.07-22.734
		c2.195-2.261,2.858-5.601,1.693-8.53l-3.949-9.926C192.52,297.876,187.014,296.021,182.784,298.569z"/>
</g>
<path style="fill:#00C3FF;" d="M497.67,376.44v41.88c0,4.42-3.59,8-8,8H233.98c-4.41,0-8-3.58-8-8v-41.88
	c0-23.39,15.95-43.78,38.65-49.41l70.28-17.45h53.83l70.28,17.45C481.72,332.66,497.67,353.05,497.67,376.44z"/>
<g>
	<path style="fill:#00AAF0;" d="M261.09,328.049c-13.025,11.881-21.232,31.604-21.232,48.392v49.882h-5.872c-4.418,0-8-3.582-8-8
		v-41.882C225.986,354.284,240.282,334.825,261.09,328.049z"/>
	<path style="fill:#00AAF0;" d="M462.561,328.049c13.025,11.881,21.232,31.604,21.232,48.392v49.882h5.872c4.418,0,8-3.582,8-8
		v-41.882C497.665,354.284,483.369,334.825,462.561,328.049z"/>
</g>
<polygon style="fill:#FF5F5F;" points="379.71,426.32 343.95,426.32 351.16,371.33 353.04,357 370.61,357 372.49,371.33 "/>
<polygon style="fill:#F44D4D;" points="372.49,371.33 351.16,371.33 353.04,357 370.61,357 "/>
<polygon style="fill:#FF5F5F;" points="350.606,365.72 339.387,346.289 350.606,326.857 373.043,326.857 384.262,346.289 
	373.043,365.72 "/>
<g>
	<rect x="333.52" y="265.87" style="fill:#F7C9A4;" width="56.6" height="52.43"/>
	<path style="fill:#F7C9A4;" d="M450.252,215.157c0,10.105-7.02,18.572-16.442,20.778c-1.577,0.379-3.214,0.576-4.905,0.576
		c-11.795,0-21.354-9.559-21.354-21.355c0-11.788,9.559-21.347,21.354-21.347c1.759,0,3.464,0.212,5.094,0.614
		C443.331,196.706,450.252,205.128,450.252,215.157z"/>
	<path style="fill:#F7C9A4;" d="M316.106,215.157c0,11.795-9.559,21.355-21.355,21.355c-1.69,0-3.335-0.197-4.912-0.576
		c-9.43-2.214-16.442-10.673-16.442-20.778c0-10.029,6.921-18.444,16.253-20.725c1.63-0.409,3.343-0.622,5.102-0.622
		C306.547,193.81,316.106,203.369,316.106,215.157z"/>
</g>
<path style="fill:#FFD9B6;" d="M420.953,154.133v74.873c0,32.657-26.471,59.129-59.129,59.129s-59.129-26.471-59.129-59.129v-74.873
	L420.953,154.133L420.953,154.133z"/>
<g>
	<path style="fill:#493030;" d="M333.929,222.279c-4.142,0-7.5-3.358-7.5-7.5v-5.223c0-4.142,3.358-7.5,7.5-7.5s7.5,3.358,7.5,7.5
		v5.223C341.429,218.921,338.071,222.279,333.929,222.279z"/>
	<path style="fill:#493030;" d="M389.721,222.279c-4.142,0-7.5-3.358-7.5-7.5v-5.223c0-4.142,3.358-7.5,7.5-7.5s7.5,3.358,7.5,7.5
		v5.223C397.221,218.921,393.863,222.279,389.721,222.279z"/>
</g>
<g>
	<path style="fill:#00AAF0;" d="M276.84,399.67v26.65h-15v-26.65c0-4.15,3.36-7.5,7.5-7.5S276.84,395.52,276.84,399.67z"/>
	<path style="fill:#00AAF0;" d="M461.81,399.67v26.65h-15v-26.65c0-4.15,3.36-7.5,7.5-7.5S461.81,395.52,461.81,399.67z"/>
	<path style="fill:#00AAF0;" d="M329.219,298.569l32.606,19.645l-11.426,23.38c-2.433,4.978-9.068,6.035-12.928,2.06l-22.07-22.734
		c-2.195-2.261-2.858-5.601-1.693-8.53l3.949-9.926C319.482,297.876,324.988,296.021,329.219,298.569z"/>
	<path style="fill:#00AAF0;" d="M394.431,298.569l-32.606,19.645l11.426,23.38c2.433,4.978,9.068,6.035,12.928,2.06l22.07-22.734
		c2.195-2.261,2.858-5.601,1.693-8.53l-3.949-9.926C404.167,297.876,398.661,296.021,394.431,298.569z"/>
</g>
<path style="fill:#694B4B;" d="M302.698,190.967c0,0,50.677-4.552,66.173-34.559c0,0,17.904,21.646,52.082,25.778
	c0,0,34.572-31.646,33.611-80.71c-0.065-3.335-2.163-6.289-5.303-7.416c-22.07-7.924-110.211-35.75-137.469,14.262
	c0,0-30.632,3.616-25.775,33.058C290.875,170.822,302.698,190.967,302.698,190.967z"/>
<path style="fill:#FF5F5F;" d="M148.384,53.124C184.538,28.183,227.767,15,273.397,15c41.453,0,80.922,10.882,114.908,31.573h-8.599
	c-4.142,0-7.5,3.358-7.5,7.5s3.358,7.5,7.5,7.5h26.848c4.142,0,7.5-3.358,7.5-7.5V27.225c0-4.142-3.358-7.5-7.5-7.5
	s-7.5,3.358-7.5,7.5v8.364C362.057,12.279,318.822,0,273.397,0c-48.687,0-94.861,14.101-133.53,40.777
	c-3.41,2.352-4.267,7.022-1.915,10.432C140.305,54.619,144.976,55.477,148.384,53.124z"/>
<path style="fill:#00C3FF;" d="M412.727,460.791c-2.351-3.409-7.022-4.267-10.432-1.915C366.141,483.817,322.912,497,277.282,497
	c-41.453,0-80.922-10.882-114.908-31.573h8.599c4.142,0,7.5-3.358,7.5-7.5s-3.358-7.5-7.5-7.5h-26.848c-4.142,0-7.5,3.358-7.5,7.5
	v26.848c0,4.142,3.358,7.5,7.5,7.5s7.5-3.358,7.5-7.5v-8.364C188.622,499.721,231.857,512,277.282,512
	c48.687,0,94.861-14.101,133.53-40.777C414.222,468.871,415.079,464.201,412.727,460.791z"/>
<g>
</g>
<g>
</g>
<g>
</g>
<g>
</g>
<g>
</g>
<g>
</g>
<g>
</g>
<g>
</g>
<g>
</g>
<g>
</g>
<g>
</g>
<g>
</g>
<g>
</g>
<g>
</g>
<g>
</g>
</svg>
