<?xml version="1.0" encoding="iso-8859-1"?>
<!-- Generator: Adobe Illustrator 19.0.0, SVG Export Plug-In . SVG Version: 6.00 Build 0)  -->
<svg version="1.1" id="Capa_1" xmlns="http://www.w3.org/2000/svg" xmlns:xlink="http://www.w3.org/1999/xlink" x="0px" y="0px"
	 viewBox="0 0 512 512" style="enable-background:new 0 0 512 512;" xml:space="preserve">
<path style="fill:#415A6B;" d="M342.058,0L342.058,0c-7.467,0-13.867,6.4-13.867,13.867v268.8h26.667v-268.8
	C354.858,6.4,349.525,0,342.058,0z"/>
<path style="fill:#E8EAE9;" d="M119.125,391.467l-6.4,17.067l22.4,8.533l12.8-12.8c-6.4-7.467-7.467-19.2-6.4-30.933
	L119.125,391.467z"/>
<path style="fill:#344A5E;" d="M82.858,508.8c0,0,2.133-1.067,2.133-2.133c0-1.067-4.267-4.267-13.867-6.4s-22.4-10.667-25.6-16
	s-3.2-5.333-3.2-5.333l-32,1.067c0,0-11.733,6.4-7.467,21.333l1.067,2.133c0,0,12.8,0,22.4,3.2c9.6,3.2,29.867,6.4,43.733,4.267
	S82.858,508.8,82.858,508.8z"/>
<path style="fill:#415A6B;" d="M115.925,397.867c0,0,24.533-4.267,33.067-3.2c8.533,1.067,18.133,1.067,18.133,1.067
	s4.267-84.267,7.467-104.533s-17.067-29.867-22.4-34.133c-5.333-3.2-60.8-35.2-60.8-35.2l-66.133,55.467c0,0-4.267,48,0,57.6
	c0,0-2.133,6.4-2.133,11.733c0,5.333-1.067,19.2-4.267,29.867c-3.2,10.667-6.4,39.467-8.533,65.067S8.192,480,8.192,480
	s5.333,7.467,19.2,6.4c13.867-1.067,22.4-2.133,24.533-6.4c2.133-3.2-2.133-30.933,3.2-56.533s4.267-50.133,4.267-50.133
	s12.8-34.133,13.867-48c1.067-13.867,8.533-39.467,8.533-39.467s28.8,5.333,36.267,6.4s11.733,3.2,11.733,3.2s-2.133,8.533,0,11.733
	s-3.2,11.733-5.333,23.467c-2.133,11.733-2.133,36.267-4.267,46.933C115.925,390.4,115.925,397.867,115.925,397.867z"/>
<path style="fill:#344A5E;" d="M118.058,426.667h-5.333c0,0-6.4-6.4-1.067-18.133c0,0,7.467,2.133,16,0
	c8.533-2.133,17.067-12.8,17.067-12.8s14.933,11.733,22.4,12.8c7.467,2.133,28.8-2.133,28.8,1.067c0,3.2-4.267,4.267-4.267,4.267
	s-22.4,9.6-37.333,9.6c-14.933,0-10.667-1.067-18.133,1.067C126.592,426.667,118.058,426.667,118.058,426.667z"/>
<g>
	<path style="fill:#FFD15C;" d="M131.925,177.067l5.333-2.133l5.333-4.267c1.067-1.067,3.2-1.067,4.267-1.067l4.267,2.133l3.2-1.067
		l1.067,1.067c0,0,4.267-1.067,5.333,2.133c1.067,2.133-1.067,4.267-1.067,4.267s3.2,1.067,2.133,3.2c0,2.133-2.133,3.2-2.133,3.2
		s4.267,1.067,3.2,3.2s-4.267,2.133-4.267,2.133s0,1.067,1.067,1.067c1.067,0,5.333,3.2,4.267,6.4c-2.133,3.2-5.333,0-6.4-1.067
		c-1.067-1.067-11.733,2.133-20.267-2.133C125.525,192,125.525,192,125.525,192L131.925,177.067z"/>
	<path style="fill:#FFD15C;" d="M71.125,13.867l3.2,4.267c0,0,6.4,8.533,6.4,11.733c0,3.2,0,3.2,1.067,4.267
		c1.067,2.133,6.4,7.467,7.467,8.533c1.067,1.067,0,2.133-1.067,3.2c-2.133,2.133-3.2,2.133-3.2,3.2s3.2,3.2,0,4.267
		c0,0,2.133,0,1.067,2.133c-1.067,2.133,0,5.333,1.067,8.533c1.067,3.2-4.267,6.4-10.667,5.333
		c-6.4-1.067-17.067,24.533-17.067,24.533l-25.6-19.2l2.133-12.8C35.925,61.867,31.658,7.467,71.125,13.867z"/>
</g>
<path style="fill:#415A6B;" d="M57.258,44.8l5.333-2.133c0,0-1.067-5.333,0-9.6c1.067-5.333-1.067-12.8-4.267-16
	s14.933-1.067,16,1.067c0,0,3.2-10.667-3.2-14.933S49.792,0,40.192,3.2s-16,14.933-17.067,23.467s12.8,35.2,12.8,35.2
	s7.467-1.067,7.467-3.2c0-2.133-2.133-8.533,0-16C46.592,35.2,55.125,37.333,57.258,44.8z"/>
<ellipse transform="matrix(-0.5181 -0.8553 0.8553 -0.5181 39.192 111.5612)" style="fill:#FFD15C;" cx="51.023" cy="44.74" rx="9.6" ry="6.4"/>
<path style="fill:#F7B64C;" d="M75.392,69.333c0,0-9.6-2.133-18.133-11.733c0,0,2.133,8.533,12.8,17.067
	C71.125,72.533,73.258,70.4,75.392,69.333L75.392,69.333z"/>
<path style="fill:#E8EAE9;" d="M34.858,65.067c0,0,16,2.133,22.4,7.467S68.992,89.6,68.992,89.6l-3.2,12.8L32.725,72.533
	L34.858,65.067z"/>
<path style="fill:#344A5E;" d="M92.458,166.4c0,0-2.133,19.2-1.067,29.867c1.067,10.667,13.867,48,18.133,58.667
	s-2.133,19.2-11.733,24.533c-8.533,5.333-57.6,16-73.6,10.667S3.925,281.6,3.925,281.6s2.133-66.133,2.133-78.933
	S-1.408,128,0.725,117.333s20.267-37.333,28.8-38.4c9.6-1.067,9.6-1.067,9.6-1.067s22.4,8.533,35.2,28.8
	S92.458,133.333,92.458,166.4z"/>
<g>
	<path style="fill:#415A6B;" d="M33.792,70.4c0,0,10.667,1.067,17.067,6.4c6.4,5.333,22.4,26.667,28.8,36.267
		c7.467,9.6,11.733,19.2,11.733,29.867c0,10.667,0,25.6,0,25.6s0-20.267-3.2-27.733c-3.2-7.467-10.667-22.4-16-29.867
		c-5.333-7.467-17.067-21.333-24.533-25.6c-6.4-6.4-18.133-6.4-18.133-6.4L33.792,70.4z"/>
	<path style="fill:#415A6B;" d="M139.392,206.933l-58.667,2.133c0,0-19.2,1.067-26.667-6.4c-6.4-6.4-19.2-51.2-21.333-59.733l0,0
		l0,0c0,0,0,0,0-1.067l0,0c0-2.133-1.067-5.333-1.067-8.533c-1.067-18.133,8.533-32,20.267-32s21.333,12.8,23.467,29.867
		c0,2.133,0,4.267,1.067,6.4c1.067,7.467,3.2,21.333,3.2,25.6c0,5.333,2.133,10.667,2.133,12.8c0,2.133,2.133-1.067,3.2,0
		c1.067,1.067,6.4,3.2,11.733,3.2s36.267-4.267,36.267-4.267S143.658,192,139.392,206.933z"/>
	<path style="fill:#415A6B;" d="M112.725,426.667c0,0,11.733-2.133,23.467-3.2c11.733-2.133,21.333,0,33.067-3.2
		s24.533-9.6,25.6-10.667c0,0,2.133,1.067,0,3.2s-17.067,8.533-30.933,11.733c-13.867,3.2-26.667,2.133-26.667,2.133l1.067,3.2
		l-24.533,5.333C113.792,433.067,111.658,428.8,112.725,426.667z"/>
	<path style="fill:#415A6B;" d="M1.792,500.267c0,0,13.867,2.133,21.333,3.2s7.467,5.333,22.4,5.333s37.333,0,39.467-3.2
		c0,0,2.133,2.133-1.067,3.2c-4.267,3.2-22.4,3.2-34.133,3.2c-12.8,0-21.333-3.2-25.6-5.333v3.2l-22.4-2.133
		C-0.342,504.533,1.792,500.267,1.792,500.267z"/>
</g>
<polygon style="fill:#E8EAE9;" points="511.658,279.467 511.658,512 102.058,512 102.058,433.067 207.658,433.067 207.658,356.267 
	312.192,356.267 312.192,279.467 "/>
<path style="fill:#66C6B9;" d="M511.658,146.133c-52.267-33.067-104.533,33.067-156.8,0c0-39.467,0-78.933,0-118.4
	c52.267,33.067,104.533-33.067,156.8,0C511.658,67.2,511.658,106.667,511.658,146.133z"/>
<g>
</g>
<g>
</g>
<g>
</g>
<g>
</g>
<g>
</g>
<g>
</g>
<g>
</g>
<g>
</g>
<g>
</g>
<g>
</g>
<g>
</g>
<g>
</g>
<g>
</g>
<g>
</g>
<g>
</g>
</svg>
