<?xml version="1.0" encoding="iso-8859-1"?>
<!-- Generator: Adobe Illustrator 19.0.0, SVG Export Plug-In . SVG Version: 6.00 Build 0)  -->
<svg version="1.1" id="Capa_1" xmlns="http://www.w3.org/2000/svg" xmlns:xlink="http://www.w3.org/1999/xlink" x="0px" y="0px"
	 viewBox="0 0 512 512" style="enable-background:new 0 0 512 512;" xml:space="preserve">
<circle style="fill:#5CC693;" cx="256" cy="255.999" r="255.999"/>
<path style="fill:#FD7034;" d="M470.204,40.492v355.755c-14.869,22.664-33.238,42.82-54.334,59.705
	C372.057,491.029,316.479,512,256.001,512s-116.056-20.971-159.869-56.048c-21.096-16.885-39.466-37.042-54.334-59.705V40.492
	c0-22.361,18.129-40.49,40.49-40.49h347.427C452.075,0.002,470.204,18.131,470.204,40.492z"/>
<path style="fill:#F96D0D;" d="M102.663,0c-22.361,0-40.49,18.129-40.49,40.49v382.734c-7.367-8.516-14.169-17.523-20.375-26.979
	V40.49C41.798,18.129,59.927,0,82.287,0H102.663z"/>
<path style="fill:#EDEDED;" d="M433.639,92.337v347.991c-46.028,44.377-108.648,71.669-177.632,71.669
	c-48.243,0-93.361-13.343-131.876-36.55c-5.245-3.156-10.365-6.489-15.349-10c-10.783-7.596-20.95-15.997-30.417-25.13V62.986
	c0-11.546,9.352-20.908,20.898-20.908H383.38L433.639,92.337z"/>
<path style="fill:#C2C2C2;" d="M341.7,35.678h-30.414l0,0c0-7.008-5.681-12.688-12.688-12.688h-85.194
	c-7.008,0-12.688,5.681-12.688,12.688l0,0h-30.414c-10.233,0-18.527,8.294-18.527,18.527v37.264
	c0,10.233,8.294,18.527,18.527,18.527h171.399c10.233,0,18.527-8.294,18.527-18.527V54.205
	C360.227,43.972,351.933,35.678,341.7,35.678z"/>
<path style="fill:#FCC72E;" d="M341.7,24.184h-30.414l0,0c0-7.008-5.681-12.688-12.688-12.688h-85.194
	c-7.008,0-12.688,5.681-12.688,12.688l0,0h-30.414c-10.233,0-18.527,8.294-18.527,18.527v37.264
	c0,10.233,8.294,18.527,18.527,18.527h171.399c10.233,0,18.527-8.294,18.527-18.527V42.711
	C360.227,32.478,351.933,24.184,341.7,24.184z"/>
<g>
	<path style="fill:#474F70;" d="M391.409,179.28h-168.25c-5.665,0-10.258-4.592-10.258-10.258v-1.113
		c0-5.665,4.592-10.258,10.258-10.258h168.25c5.665,0,10.258,4.592,10.258,10.258v1.113
		C401.667,174.687,397.074,179.28,391.409,179.28z"/>
	<path style="fill:#474F70;" d="M391.409,269.155h-168.25c-5.665,0-10.258-4.592-10.258-10.258v-1.113
		c0-5.665,4.592-10.258,10.258-10.258h168.25c5.665,0,10.258,4.592,10.258,10.258v1.113
		C401.667,264.563,397.074,269.155,391.409,269.155z"/>
</g>
<path style="fill:#C2C2C2;" d="M433.639,92.337c-21.953,11.598-44.93,3.553-48.629-7.92c0,0,25.224-1.317,40.824,0.115
	L433.639,92.337z"/>
<g>
	<path style="fill:#474F70;" d="M391.409,448.906h-168.25c-5.665,0-10.258-4.592-10.258-10.258v-1.113
		c0-5.665,4.592-10.258,10.258-10.258h168.25c5.665,0,10.258,4.592,10.258,10.258v1.113
		C401.667,444.314,397.074,448.906,391.409,448.906z"/>
	<path style="fill:#474F70;" d="M391.409,359.031h-168.25c-5.665,0-10.258-4.592-10.258-10.258v-1.113
		c0-5.665,4.592-10.258,10.258-10.258h168.25c5.665,0,10.258,4.592,10.258,10.258v1.113
		C401.667,354.438,397.074,359.031,391.409,359.031z"/>
</g>
<path style="fill:#F7F7F7;" d="M383.377,77.695V42.079l50.259,50.259h-35.617C389.932,92.338,383.377,85.783,383.377,77.695z"/>
<g>
	<path style="fill:#474F70;" d="M176.694,205.82H115.57c-3.751,0-6.792-3.041-6.792-6.792v-61.123c0-3.751,3.041-6.792,6.792-6.792
		h61.123c3.751,0,6.792,3.041,6.792,6.792v61.123C183.485,202.778,180.445,205.82,176.694,205.82z M122.362,192.236h47.54v-47.54
		h-47.54V192.236z"/>
	<path style="fill:#474F70;" d="M176.694,295.694H115.57c-3.751,0-6.792-3.041-6.792-6.792v-61.123c0-3.751,3.041-6.792,6.792-6.792
		h61.123c3.751,0,6.792,3.041,6.792,6.792v61.123C183.485,292.654,180.445,295.694,176.694,295.694z M122.362,282.111h47.54v-47.54
		h-47.54V282.111z"/>
</g>
<g>
	<path style="fill:#FF4F6F;" d="M157.496,276.497c-1.739,0-3.476-0.664-4.802-1.989l-22.726-22.726
		c-2.653-2.653-2.653-6.953,0-9.605c2.652-2.652,6.953-2.652,9.605,0l22.726,22.726c2.653,2.653,2.653,6.953,0,9.605
		C160.972,275.833,159.233,276.497,157.496,276.497z"/>
	<path style="fill:#FF4F6F;" d="M134.769,276.497c-1.739,0-3.476-0.664-4.802-1.989c-2.653-2.653-2.653-6.953,0-9.605l22.726-22.726
		c2.652-2.652,6.953-2.652,9.605,0c2.653,2.653,2.653,6.953,0,9.605l-22.726,22.726
		C138.246,275.833,136.507,276.497,134.769,276.497z"/>
</g>
<g>
	<path style="fill:#474F70;" d="M176.694,385.57H115.57c-3.751,0-6.792-3.041-6.792-6.792v-61.123c0-3.751,3.041-6.792,6.792-6.792
		h61.123c3.751,0,6.792,3.041,6.792,6.792v61.123C183.485,382.529,180.445,385.57,176.694,385.57z M122.362,371.986h47.54v-47.54
		h-47.54V371.986z"/>
	<path style="fill:#474F70;" d="M176.689,400.738h-61.116c-3.751,0-6.792,3.041-6.792,6.792v57.918
		c4.984,3.511,10.104,6.844,15.349,10h52.558c3.751,0,6.792-3.041,6.792-6.792v-61.126
		C183.481,403.778,180.441,400.738,176.689,400.738z M169.898,461.864h-47.532v-47.543h47.532V461.864z"/>
</g>
<g>
	<path style="fill:#FF4F6F;" d="M157.496,456.248c-1.739,0-3.476-0.664-4.802-1.989l-22.726-22.726
		c-2.653-2.653-2.653-6.953,0-9.605c2.652-2.652,6.953-2.652,9.605,0l22.726,22.726c2.653,2.653,2.653,6.953,0,9.605
		C160.972,455.584,159.233,456.248,157.496,456.248z"/>
	<path style="fill:#FF4F6F;" d="M134.769,456.248c-1.739,0-3.476-0.664-4.802-1.989c-2.653-2.653-2.653-6.953,0-9.605l22.726-22.726
		c2.652-2.652,6.953-2.652,9.605,0c2.653,2.653,2.653,6.953,0,9.605l-22.726,22.726
		C138.246,455.584,136.507,456.248,134.769,456.248z"/>
</g>
<g>
</g>
<g>
</g>
<g>
</g>
<g>
</g>
<g>
</g>
<g>
</g>
<g>
</g>
<g>
</g>
<g>
</g>
<g>
</g>
<g>
</g>
<g>
</g>
<g>
</g>
<g>
</g>
<g>
</g>
</svg>
