<?xml version="1.0" encoding="iso-8859-1"?>
<!-- Generator: Adobe Illustrator 19.0.0, SVG Export Plug-In . SVG Version: 6.00 Build 0)  -->
<svg version="1.1" id="Capa_1" xmlns="http://www.w3.org/2000/svg" xmlns:xlink="http://www.w3.org/1999/xlink" x="0px" y="0px"
	 viewBox="0 0 511.652 511.652" style="enable-background:new 0 0 511.652 511.652;" xml:space="preserve">
<g>
	<polygon style="fill:#E6E9ED;" points="255.9,307.814 239.911,315.73 215.927,291.747 223.039,282.019 	"/>
	<polygon style="fill:#E6E9ED;" points="256.221,307.814 272.206,315.73 296.19,291.747 289.085,282.019 	"/>
</g>
<path style="fill:#656D78;" d="M287.477,172.07c0,0,32.385-4.551,24.232,47.726l-15.988-23.983c0,0-18.955,7.994-39.743,7.994
	c-20.704,0-40.207-7.994-40.207-7.994l-15.911,23.905l-0.078,0.078c-8.237-87.94,96.017-70.429,96.017-70.429
	C280.277,155.683,287.477,172.07,287.477,172.07z"/>
<g style="opacity:0.2;">
	<path d="M287.477,172.07c0,0,19.846-3.849,17.348,37.396l6.885,10.329C319.862,167.519,287.477,172.07,287.477,172.07z"/>
</g>
<g style="opacity:0.2;">
	<path style="fill:#FFFFFF;" d="M279.514,148.001c-28.977-0.781-85.899,5.934-79.731,71.795l0.078-0.078l7.55-11.336
		C208.471,158.244,251.286,148.75,279.514,148.001z"/>
</g>
<path style="fill:#EAC6BB;" d="M311.944,227.868c0,37.975-34.617,72.997-55.965,72.997c-21.259,0-55.962-35.022-55.962-72.997
	v-8.072l-0.156-0.078l15.911-23.905c0,0,19.503,7.994,40.207,7.994c20.788,0,39.743-7.994,39.743-7.994l15.988,23.983h0.234V227.868
	z"/>
<g style="opacity:0.2;">
	<path d="M311.71,219.796l-15.988-23.983c0,0-5.246,2.186-13.146,4.263l13.146,19.721h0.234v8.072
		c0,33.517-26.951,64.69-47.956,71.562c2.787,0.913,5.48,1.436,7.979,1.436c21.348,0,55.965-35.022,55.965-72.997v-8.072h-0.234
		V219.796z"/>
</g>
<g style="opacity:0.3;">
	<path style="fill:#FFFFFF;" d="M216.005,227.868v-8.072l-0.156-0.078l13.108-19.689c-7.924-2.062-13.187-4.216-13.187-4.216
		l-15.911,23.905l0.156,0.078v8.072c0,37.975,34.703,72.997,55.962,72.997c2.506,0,5.208-0.522,8.014-1.436
		C243.026,292.558,216.005,261.385,216.005,227.868z"/>
</g>
<path style="fill:#5D9CEC;" d="M351.684,363.697H159.809v-7.994c0,0,0-5.355,0-18.628c0-13.351,6.714-18.378,19.986-23.343
	c6.551-2.476,18.308-6.871,27.981-11.508l9.353-9.275l22.782,22.781l15.989-7.916l15.993,7.916l22.703-22.703l9.119,9.119
	c9.744,4.715,21.424,9.11,27.982,11.586c13.35,4.965,19.986,9.992,19.986,23.343c0,13.272,0,18.628,0,18.628V363.697z"/>
<g style="opacity:0.3;">
	<path style="fill:#FFFFFF;" d="M175.798,337.075c0-13.351,6.714-18.378,19.986-23.343c6.55-2.476,18.308-6.871,27.981-11.508
		l1.327-1.312l-7.964-7.963l-9.353,9.275c-9.673,4.637-21.431,9.032-27.981,11.508c-13.272,4.965-19.986,9.992-19.986,23.343
		c0,13.272,0,18.628,0,18.628v7.994h15.989v-7.994C175.798,355.703,175.798,350.347,175.798,337.075z"/>
</g>
<g style="opacity:0.2;">
	<path d="M335.85,337.075c0-13.351-6.715-18.378-19.986-23.343c-6.543-2.476-18.301-6.871-27.98-11.508l-1.328-1.312l7.963-7.963
		l9.354,9.275c9.682,4.637,21.439,9.032,27.98,11.508c13.273,4.965,19.986,9.992,19.986,23.343c0,13.272,0,18.628,0,18.628v7.994
		h-15.988v-7.994C335.85,355.703,335.85,350.347,335.85,337.075z"/>
</g>
<g>
	<polygon style="fill:#ED5564;" points="264.212,363.697 248.225,363.697 252.223,319.727 260.217,319.727 	"/>
	<rect x="248.826" y="308.856" style="fill:#ED5564;" width="14.244" height="10.867"/>
</g>
<path style="fill:#EAC6BB;" d="M56.001,411.72c15.431,0,27.98,11.75,27.98,29.659c0,7.839-3.357,15.428-7.994,21.424
	c-5.996,7.674-13.991,12.873-19.986,12.873c-5.996,0-13.991-5.199-19.987-12.873c-4.637-5.996-7.995-13.585-7.995-21.424
	C28.02,423.47,40.57,411.72,56.001,411.72z"/>
<path style="fill:#48CFAD;" d="M75.988,471.359c0,3.278,11.914,9.196,18.065,11.516c6.636,2.475,9.915,4.949,9.915,11.586
	c0,6.558,0,13.193,0,13.193H8.034c0,0,0-6.636,0-13.193c0-6.637,3.279-9.111,9.915-11.586c6.152-2.319,18.066-8.237,18.066-11.516
	v-8.557c5.996,7.674,13.991,12.873,19.987,12.873s13.99-5.199,19.986-12.873V471.359z"/>
<g style="opacity:0.3;">
	<path style="fill:#FFFFFF;" d="M36.014,471.359c0,3.278-11.914,9.196-18.066,11.516c-6.636,2.475-9.915,4.949-9.915,11.586
		c0,6.558,0,13.193,0,13.193h7.995c0-1.654,0-3.42,0-5.199c0-6.637,3.279-9.111,9.915-11.586
		c6.152-2.318,18.066-8.236,18.066-11.516v-7.323c-2.045-2.101-5.211-5.668-7.995-9.228V471.359z"/>
	<path style="fill:#FFFFFF;" d="M44.009,470.797v1.233C46.367,474.458,47.222,474.911,44.009,470.797z"/>
</g>
<g style="opacity:0.2;">
	<path d="M75.988,471.359c0,3.278,11.914,9.196,18.065,11.516c6.636,2.475,9.915,4.949,9.915,11.586c0,6.558,0,13.193,0,13.193
		h-7.994c0-1.654,0-3.42,0-5.199c0-6.637-3.279-9.111-9.915-11.586c-6.152-2.318-18.066-8.236-18.066-11.516v-7.323
		c2.046-2.101,5.212-5.668,7.995-9.228V471.359z"/>
	<path d="M67.993,470.797v1.233C65.635,474.458,64.78,474.911,67.993,470.797z"/>
</g>
<g style="opacity:0.4;">
	<path style="fill:#FFFFFF;" d="M44.009,462.803c-4.638-5.996-7.995-13.585-7.995-21.424c0-16.324,10.458-27.418,23.984-29.276
		c-1.315-0.18-2.627-0.383-3.997-0.383c-15.431,0-27.981,11.75-27.981,29.659c0,7.839,3.357,15.428,7.995,21.424
		c5.996,7.674,13.991,12.873,19.987,12.873c1.253,0,2.607-0.272,3.997-0.702C54.732,473.349,48.752,468.876,44.009,462.803z"/>
</g>
<g style="opacity:0.3;">
	<path d="M67.993,462.803c4.638-5.996,7.995-13.585,7.995-21.424c0-16.324-10.458-27.418-23.984-29.276
		c1.315-0.18,2.627-0.383,3.998-0.383c15.431,0,27.98,11.75,27.98,29.659c0,7.839-3.357,15.428-7.994,21.424
		c-5.996,7.674-13.991,12.873-19.986,12.873c-1.253,0-2.608-0.272-3.998-0.702C57.27,473.349,63.25,468.876,67.993,462.803z"/>
</g>
<path style="fill:#EAC6BB;" d="M455.721,411.72c15.436,0,27.982,11.75,27.982,29.659c0,7.839-3.357,15.428-7.996,21.424
	c-5.996,7.674-13.99,12.873-19.986,12.873s-13.99-5.199-19.986-12.873c-4.637-5.996-7.994-13.585-7.994-21.424
	C427.741,423.47,440.288,411.72,455.721,411.72z"/>
<path style="fill:#5D9CEC;" d="M475.708,471.359c0,3.278,11.914,9.196,18.066,11.516c6.637,2.475,9.916,4.949,9.916,11.586
	c0,6.558,0,13.193,0,13.193h-95.936c0,0,0-6.636,0-13.193c0-6.637,3.279-9.111,9.916-11.586c6.15-2.319,18.064-8.237,18.064-11.516
	v-8.557c5.996,7.674,13.99,12.873,19.986,12.873s13.99-5.199,19.986-12.873v8.557H475.708z"/>
<g style="opacity:0.3;">
	<path style="fill:#FFFFFF;" d="M435.734,471.359c0,3.278-11.914,9.196-18.064,11.516c-6.637,2.475-9.916,4.949-9.916,11.586
		c0,6.558,0,13.193,0,13.193h7.994c0-1.654,0-3.42,0-5.199c0-6.637,3.279-9.111,9.916-11.586
		c6.152-2.318,18.064-8.236,18.064-11.516v-7.323c-2.045-2.101-5.207-5.668-7.994-9.228L435.734,471.359L435.734,471.359z"/>
	<path style="fill:#FFFFFF;" d="M443.729,470.797v1.233C446.089,474.458,446.938,474.911,443.729,470.797z"/>
</g>
<g style="opacity:0.2;">
	<path d="M475.708,471.359c0,3.278,11.914,9.196,18.066,11.516c6.637,2.475,9.916,4.949,9.916,11.586c0,6.558,0,13.193,0,13.193
		h-7.996c0-1.654,0-3.42,0-5.199c0-6.637-3.279-9.111-9.914-11.586c-6.152-2.318-18.066-8.236-18.066-11.516v-7.323
		c2.045-2.101,5.207-5.668,7.994-9.228V471.359z"/>
	<path d="M467.714,470.797v1.233C465.355,474.458,464.505,474.911,467.714,470.797z"/>
</g>
<g style="opacity:0.4;">
	<path style="fill:#FFFFFF;" d="M443.729,462.803c-4.637-5.996-7.994-13.585-7.994-21.424c0-16.324,10.455-27.418,23.984-29.276
		c-1.32-0.18-2.631-0.383-3.998-0.383c-15.434,0-27.98,11.75-27.98,29.659c0,7.839,3.357,15.428,7.994,21.424
		c5.996,7.674,13.99,12.873,19.986,12.873c1.258,0,2.607-0.272,3.998-0.702C454.449,473.349,448.47,468.876,443.729,462.803z"/>
</g>
<g style="opacity:0.3;">
	<path d="M467.714,462.803c4.637-5.996,7.994-13.585,7.994-21.424c0-16.324-10.453-27.418-23.982-29.276
		c1.318-0.18,2.631-0.383,3.996-0.383c15.436,0,27.982,11.75,27.982,29.659c0,7.839-3.357,15.428-7.996,21.424
		c-5.996,7.674-13.99,12.873-19.986,12.873c-1.256,0-2.607-0.272-3.996-0.702C456.995,473.349,462.975,468.876,467.714,462.803z"/>
</g>
<path style="fill:#EAC6BB;" d="M455.721,3.997c15.436,0,27.982,11.75,27.982,29.66c0,7.838-3.357,15.427-7.996,21.423
	c-5.996,7.674-13.99,12.874-19.986,12.874s-13.99-5.2-19.986-12.874c-4.637-5.996-7.994-13.585-7.994-21.423
	C427.741,15.747,440.288,3.997,455.721,3.997z"/>
<path style="fill:#48CFAD;" d="M475.708,63.637c0,3.279,11.914,9.197,18.066,11.516c6.637,2.475,9.916,4.949,9.916,11.586
	c0,6.558,0,13.194,0,13.194h-95.936c0,0,0-6.636,0-13.194c0-6.637,3.279-9.111,9.916-11.586c6.15-2.319,18.064-8.237,18.064-11.516
	V55.08c5.996,7.674,13.99,12.874,19.986,12.874s13.99-5.2,19.986-12.874v8.557H475.708z"/>
<g style="opacity:0.3;">
	<path style="fill:#FFFFFF;" d="M435.734,63.637c0,3.279-11.914,9.197-18.064,11.516c-6.637,2.475-9.916,4.949-9.916,11.586
		c0,6.558,0,13.194,0,13.194h7.994c0-1.655,0-3.419,0-5.2c0-6.636,3.279-9.111,9.916-11.586c6.152-2.318,18.064-8.236,18.064-11.516
		v-7.323c-2.045-2.1-5.207-5.668-7.994-9.228L435.734,63.637L435.734,63.637z"/>
	<path style="fill:#FFFFFF;" d="M443.729,63.074v1.233C446.089,66.736,446.938,67.188,443.729,63.074z"/>
</g>
<g style="opacity:0.2;">
	<path d="M475.708,63.637c0,3.279,11.914,9.197,18.066,11.516c6.637,2.475,9.916,4.949,9.916,11.586c0,6.558,0,13.194,0,13.194
		h-7.996c0-1.655,0-3.419,0-5.2c0-6.636-3.279-9.111-9.914-11.586c-6.152-2.318-18.066-8.236-18.066-11.516v-7.323
		c2.045-2.1,5.207-5.668,7.994-9.228V63.637z"/>
	<path d="M467.714,63.074v1.233C465.355,66.736,464.505,67.188,467.714,63.074z"/>
</g>
<g style="opacity:0.4;">
	<path style="fill:#FFFFFF;" d="M443.729,55.08c-4.637-5.996-7.994-13.585-7.994-21.423c0-16.325,10.455-27.419,23.984-29.277
		c-1.32-0.18-2.631-0.382-3.998-0.382c-15.434,0-27.98,11.75-27.98,29.66c0,7.838,3.357,15.427,7.994,21.423
		c5.996,7.674,13.99,12.874,19.986,12.874c1.258,0,2.607-0.273,3.998-0.703C454.449,65.627,448.47,61.154,443.729,55.08z"/>
</g>
<g style="opacity:0.3;">
	<path d="M467.714,55.08c4.637-5.996,7.994-13.585,7.994-21.423c0-16.325-10.453-27.419-23.982-29.277
		c1.318-0.18,2.631-0.382,3.996-0.382c15.436,0,27.982,11.75,27.982,29.66c0,7.838-3.357,15.427-7.996,21.423
		c-5.996,7.674-13.99,12.874-19.986,12.874c-1.256,0-2.607-0.273-3.996-0.703C456.995,65.627,462.975,61.154,467.714,55.08z"/>
</g>
<path style="fill:#EAC6BB;" d="M55.974,3.997c15.435,0,27.98,11.75,27.98,29.66c0,7.838-3.357,15.427-7.994,21.423
	c-5.996,7.674-13.991,12.874-19.986,12.874c-5.996,0-13.991-5.2-19.987-12.874c-4.637-5.996-7.995-13.585-7.995-21.423
	C27.993,15.747,40.539,3.997,55.974,3.997z"/>
<path style="fill:#5D9CEC;" d="M75.96,63.637c0,3.279,11.914,9.197,18.065,11.516c6.636,2.475,9.915,4.949,9.915,11.586
	c0,6.558,0,13.194,0,13.194H8.006c0,0,0-6.636,0-13.194c0-6.637,3.279-9.111,9.915-11.586c6.152-2.319,18.066-8.237,18.066-11.516
	V55.08c5.996,7.674,13.991,12.874,19.987,12.874s13.99-5.2,19.986-12.874V63.637z"/>
<g style="opacity:0.3;">
	<path style="fill:#FFFFFF;" d="M35.987,63.637c0,3.279-11.914,9.197-18.066,11.516c-6.636,2.475-9.915,4.949-9.915,11.586
		c0,6.558,0,13.194,0,13.194h7.995c0-1.655,0-3.419,0-5.2c0-6.636,3.279-9.111,9.915-11.586c6.152-2.318,18.066-8.236,18.066-11.516
		v-7.323c-2.045-2.1-5.207-5.668-7.995-9.228V63.637z"/>
	<path style="fill:#FFFFFF;" d="M43.982,63.074v1.233C46.34,66.736,47.191,67.188,43.982,63.074z"/>
</g>
<g style="opacity:0.2;">
	<path d="M75.96,63.637c0,3.279,11.914,9.197,18.065,11.516c6.636,2.475,9.915,4.949,9.915,11.586c0,6.558,0,13.194,0,13.194h-7.994
		c0-1.655,0-3.419,0-5.2c0-6.636-3.279-9.111-9.915-11.586c-6.152-2.318-18.066-8.236-18.066-11.516v-7.323
		c2.046-2.1,5.208-5.668,7.995-9.228V63.637z"/>
	<path d="M67.965,63.074v1.233C65.608,66.736,64.757,67.188,67.965,63.074z"/>
</g>
<g style="opacity:0.4;">
	<path style="fill:#FFFFFF;" d="M43.982,55.08c-4.638-5.996-7.995-13.585-7.995-21.423c0-16.325,10.454-27.419,23.984-29.277
		c-1.319-0.18-2.631-0.382-3.997-0.382c-15.435,0-27.981,11.75-27.981,29.66c0,7.838,3.357,15.427,7.995,21.423
		c5.996,7.674,13.991,12.874,19.987,12.874c1.257,0,2.607-0.273,3.997-0.703C54.701,65.627,48.721,61.154,43.982,55.08z"/>
</g>
<g style="opacity:0.3;">
	<path d="M67.965,55.08c4.638-5.996,7.995-13.585,7.995-21.423c0-16.325-10.454-27.419-23.984-29.277
		c1.319-0.18,2.631-0.382,3.998-0.382c15.435,0,27.98,11.75,27.98,29.66c0,7.838-3.357,15.427-7.994,21.423
		c-5.996,7.674-13.991,12.874-19.986,12.874c-1.257,0-2.608-0.273-3.998-0.703C57.246,65.627,63.226,61.154,67.965,55.08z"/>
</g>
<g>
	<path style="fill:#3A3847;" d="M503.659,511.652h-95.936c-2.209,0-3.998-1.788-3.998-3.998v-13.201
		c0-9.799,6.441-13.031,12.477-15.287c6.84-2.568,14.154-6.8,15.6-8.58c0.357-1.835,1.975-3.225,3.918-3.225
		c2.209,0,3.998,1.788,3.998,3.998c0,6.979-15.85,13.467-20.705,15.286c-6.285,2.357-7.291,3.935-7.291,7.808v9.204h87.939v-9.204
		c0-3.873-1.008-5.45-7.299-7.8c-3.459-1.296-20.682-8.12-20.682-15.294c0-2.21,1.787-3.998,3.996-3.998
		c1.945,0,3.568,1.39,3.928,3.225c1.428,1.788,8.736,6.02,15.561,8.58c6.041,2.256,12.49,5.48,12.49,15.287v13.201
		C507.655,509.864,505.867,511.652,503.659,511.652z"/>
	<path style="fill:#3A3847;" d="M455.69,479.674c-13.662,0-31.963-18.948-31.963-38.318c0-19.174,13.742-33.633,31.963-33.633
		c18.527,0,31.979,14.146,31.979,33.633C487.669,460.725,469.362,479.674,455.69,479.674z M455.69,415.717
		c-13.889,0-23.967,10.782-23.967,25.639c0,16.286,16.074,30.323,23.967,30.323c7.902,0,23.984-14.037,23.984-30.323
		C479.674,426.499,469.587,415.717,455.69,415.717z"/>
	<path style="fill:#3A3847;" d="M475.677,475.356c-2.209,0-3.996-1.788-3.996-3.997v-8.564c0-2.21,1.787-3.998,3.996-3.998
		c2.211,0,3.998,1.788,3.998,3.998v8.564C479.674,473.568,477.888,475.356,475.677,475.356z"/>
	<path style="fill:#3A3847;" d="M435.72,475.356c-2.209,0-3.996-1.788-3.996-3.997v-8.564c0-2.21,1.787-3.998,3.996-3.998
		s3.998,1.788,3.998,3.998v8.564C439.717,473.568,437.928,475.356,435.72,475.356z"/>
	<path style="fill:#3A3847;" d="M103.929,511.652H7.994c-2.209,0-3.997-1.788-3.997-3.998v-13.201
		c0-9.799,6.445-13.031,12.487-15.287c6.832-2.568,14.146-6.8,15.583-8.58c0.359-1.835,1.979-3.225,3.923-3.225
		c2.209,0,3.998,1.788,3.998,3.998c0,6.987-15.845,13.467-20.697,15.286c-6.292,2.357-7.3,3.942-7.3,7.808v9.204h87.94v-9.204
		c0-3.873-1.007-5.45-7.3-7.8c-3.458-1.296-20.673-8.12-20.673-15.294c0-2.21,1.788-3.998,3.998-3.998
		c1.943,0,3.563,1.39,3.923,3.232c1.433,1.78,8.736,6.012,15.556,8.572c6.039,2.256,12.492,5.48,12.492,15.287v13.201
		C107.927,509.864,106.139,511.652,103.929,511.652z"/>
	<path style="fill:#3A3847;" d="M55.97,479.674c-13.663,0-31.971-18.948-31.971-38.318c0-19.174,13.744-33.633,31.971-33.633
		c18.53,0,31.978,14.146,31.978,33.633C87.948,460.725,69.636,479.674,55.97,479.674z M55.97,415.717
		c-13.894,0-23.976,10.782-23.976,25.639c0,16.286,16.083,30.323,23.976,30.323c7.896,0,23.983-14.037,23.983-30.323
		C79.953,426.499,69.867,415.717,55.97,415.717z"/>
	<path style="fill:#3A3847;" d="M75.956,475.356c-2.21,0-3.998-1.788-3.998-3.997v-8.564c0-2.21,1.788-3.998,3.998-3.998
		c2.209,0,3.997,1.788,3.997,3.998v8.564C79.953,473.568,78.165,475.356,75.956,475.356z"/>
	<path style="fill:#3A3847;" d="M35.991,475.356c-2.209,0-3.997-1.788-3.997-3.997v-8.564c0-2.21,1.788-3.998,3.997-3.998
		s3.998,1.788,3.998,3.998v8.564C39.989,473.568,38.201,475.356,35.991,475.356z"/>
	<path style="fill:#3A3847;" d="M503.659,103.93h-95.936c-2.209,0-3.998-1.788-3.998-3.998V86.73c0-9.798,6.441-13.03,12.477-15.287
		c6.84-2.568,14.154-6.8,15.6-8.58c0.357-1.834,1.975-3.224,3.918-3.224c2.209,0,3.998,1.788,3.998,3.998
		c0,6.979-15.85,13.467-20.705,15.286c-6.285,2.358-7.291,3.935-7.291,7.808v9.204h87.939v-9.204c0-3.873-1.008-5.45-7.299-7.8
		c-3.459-1.296-20.682-8.119-20.682-15.294c0-2.21,1.787-3.998,3.996-3.998c1.945,0,3.568,1.39,3.928,3.224
		c1.428,1.788,8.736,6.02,15.561,8.58c6.041,2.257,12.49,5.481,12.49,15.287v13.202C507.655,102.141,505.867,103.93,503.659,103.93z
		"/>
	<path style="fill:#3A3847;" d="M455.69,71.951c-13.662,0-31.963-18.948-31.963-38.317C423.727,14.459,437.469,0,455.69,0
		c18.527,0,31.979,14.146,31.979,33.634C487.669,53.003,469.362,71.951,455.69,71.951z M455.69,7.994
		c-13.889,0-23.967,10.782-23.967,25.639c0,16.286,16.074,30.323,23.967,30.323c7.902,0,23.984-14.037,23.984-30.323
		C479.674,18.776,469.587,7.994,455.69,7.994z"/>
	<path style="fill:#3A3847;" d="M475.677,67.634c-2.209,0-3.996-1.788-3.996-3.997v-8.564c0-2.21,1.787-3.998,3.996-3.998
		c2.211,0,3.998,1.788,3.998,3.998v8.564C479.674,65.846,477.888,67.634,475.677,67.634z"/>
	<path style="fill:#3A3847;" d="M435.72,67.634c-2.209,0-3.996-1.788-3.996-3.997v-8.564c0-2.21,1.787-3.998,3.996-3.998
		s3.998,1.788,3.998,3.998v8.564C439.717,65.846,437.928,67.634,435.72,67.634z"/>
	<path style="fill:#3A3847;" d="M103.929,103.93H7.994c-2.209,0-3.997-1.788-3.997-3.998V86.73c0-9.798,6.445-13.03,12.487-15.287
		c6.832-2.568,14.146-6.8,15.583-8.58c0.359-1.834,1.979-3.224,3.923-3.224c2.209,0,3.998,1.788,3.998,3.998
		c0,6.987-15.845,13.467-20.697,15.286c-6.292,2.358-7.3,3.943-7.3,7.808v9.204h87.94v-9.204c0-3.873-1.007-5.45-7.3-7.8
		c-3.458-1.296-20.673-8.119-20.673-15.294c0-2.21,1.788-3.998,3.998-3.998c1.943,0,3.563,1.39,3.923,3.232
		c1.433,1.78,8.736,6.012,15.556,8.572c6.039,2.257,12.492,5.481,12.492,15.287v13.202
		C107.927,102.141,106.139,103.93,103.929,103.93z"/>
	<path style="fill:#3A3847;" d="M55.97,71.951c-13.663,0-31.971-18.948-31.971-38.317C23.999,14.459,37.743,0,55.97,0
		C74.5,0,87.948,14.146,87.948,33.634C87.948,53.003,69.636,71.951,55.97,71.951z M55.97,7.994
		c-13.894,0-23.976,10.782-23.976,25.639c0,16.286,16.083,30.323,23.976,30.323c7.896,0,23.983-14.037,23.983-30.323
		C79.953,18.776,69.867,7.994,55.97,7.994z"/>
	<path style="fill:#3A3847;" d="M75.956,67.634c-2.21,0-3.998-1.788-3.998-3.997v-8.564c0-2.21,1.788-3.998,3.998-3.998
		c2.209,0,3.997,1.788,3.997,3.998v8.564C79.953,65.846,78.165,67.634,75.956,67.634z"/>
	<path style="fill:#3A3847;" d="M35.991,67.634c-2.209,0-3.997-1.788-3.997-3.997v-8.564c0-2.21,1.788-3.998,3.997-3.998
		s3.998,1.788,3.998,3.998v8.564C39.989,65.846,38.201,67.634,35.991,67.634z"/>
	<path style="fill:#3A3847;" d="M159.899,367.711c-2.209,0-3.997-1.788-3.997-3.998v-26.638c0-15.583,8.279-21.728,22.586-27.075
		c7.491-2.795,18.511-7.019,27.657-11.383c1.983-0.952,4.372-0.117,5.328,1.882c0.953,1.998,0.109,4.38-1.885,5.332
		c-9.431,4.505-20.669,8.814-28.305,11.664c-13.65,5.098-17.386,9.306-17.386,19.58v26.638
		C163.896,365.923,162.109,367.711,159.899,367.711z"/>
	<path style="fill:#3A3847;" d="M351.763,367.711c-2.211,0-3.998-1.788-3.998-3.998v-26.638c0-10.274-3.74-14.482-17.387-19.58
		c-7.604-2.842-18.814-7.144-28.324-11.695c-1.99-0.952-2.834-3.342-1.881-5.332c0.951-2.007,3.348-2.826,5.332-1.882
		c9.219,4.419,20.205,8.635,27.668,11.414c14.303,5.348,22.586,11.492,22.586,27.075v26.638
		C355.759,365.923,353.971,367.711,351.763,367.711z"/>
	<path style="fill:#3A3847;" d="M255.646,303.754c-22.59,0-59.959-35.951-59.959-76.916c0-2.209,1.788-3.997,3.998-3.997
		s3.998,1.788,3.998,3.997c0,35.538,32.419,68.922,51.964,68.922c19.541,0,51.957-33.384,51.957-68.922
		c0-2.209,1.787-3.997,3.998-3.997c2.209,0,3.996,1.788,3.996,3.997C315.598,267.803,278.233,303.754,255.646,303.754z"/>
	<path style="fill:#3A3847;" d="M311.367,222.716c-1.32,0-2.576-0.656-3.326-1.78l-14.217-21.321
		c-6.363,2.303-21.619,7.112-38.178,7.112c-16.625,0-32.216-4.84-38.657-7.136l-14.229,21.345c-0.94,1.405-2.658,2.085-4.306,1.655
		c-1.639-0.414-2.842-1.812-3.001-3.498c-2.092-22.399,2.729-40.215,14.33-52.957c16.711-18.347,43.818-22.195,63.617-22.195
		c13.178,0,22.711,1.694,23.109,1.764c1.748,0.312,3.076,1.749,3.264,3.513s-0.812,3.443-2.451,4.122
		c-3.576,1.468-5.918,3.568-6.98,6.246c-1.039,2.615-0.758,5.41-0.32,7.331c4.076,0.164,12.289,1.476,18.543,8.775
		c7.604,8.892,9.875,23.569,6.752,43.642c-0.258,1.624-1.482,2.936-3.092,3.287C311.936,222.684,311.648,222.716,311.367,222.716z
		 M295.378,190.737c1.305,0,2.568,0.641,3.326,1.78l9.861,14.795c0.615-11.977-1.445-21.002-6.074-26.42
		c-4.475-5.215-10.338-5.996-13.438-5.996c-0.779,0-1.279,0.055-1.381,0.062c-1.742,0.211-3.451-0.71-4.178-2.303
		c-0.148-0.328-3.668-8.221-0.584-16.013c0.6-1.53,1.404-2.936,2.404-4.224c-17.004-1.382-51.239-1.085-69.622,19.104
		c-7.889,8.658-12.128,20.268-12.663,34.594l9.068-13.6c1.05-1.585,3.068-2.217,4.844-1.483c0.187,0.078,19.014,7.698,38.704,7.698
		c19.721,0,37.998-7.604,38.178-7.682C294.333,190.839,294.854,190.737,295.378,190.737z"/>
	<path style="fill:#3A3847;" d="M311.602,230.835c-2.211,0-3.998-1.788-3.998-3.997v-8.119c0-2.21,1.787-3.998,3.998-3.998
		c2.209,0,3.996,1.788,3.996,3.998v8.119C315.598,229.047,313.811,230.835,311.602,230.835z"/>
	<path style="fill:#3A3847;" d="M199.684,230.835c-2.209,0-3.998-1.788-3.998-3.997v-8.119c0-2.21,1.788-3.998,3.998-3.998
		s3.998,1.788,3.998,3.998v8.119C203.682,229.047,201.894,230.835,199.684,230.835z"/>
	<path style="fill:#3A3847;" d="M239.969,319.743c-1.034,0-2.057-0.405-2.826-1.171l-23.983-23.983
		c-1.562-1.562-1.562-4.091,0-5.652s4.091-1.562,5.652,0l21.954,21.954l13.526-6.723c1.967-0.968,4.376-0.172,5.356,1.804
		c0.982,1.983,0.176,4.38-1.805,5.363l-16.098,7.995C241.183,319.61,240.575,319.743,239.969,319.743z"/>
	<path style="fill:#3A3847;" d="M271.94,319.743c-0.6,0-1.209-0.133-1.779-0.413l-16.103-7.995c-1.979-0.983-2.787-3.38-1.803-5.363
		c0.979-1.976,3.384-2.771,5.355-1.804l13.535,6.723l21.953-21.954c1.561-1.562,4.092-1.562,5.652,0s1.561,4.091,0,5.652
		l-23.984,23.983C274.003,319.338,272.979,319.743,271.94,319.743z"/>
	<path style="fill:#3A3847;" d="M256.255,327.738c-1.022,0-2.045-0.391-2.826-1.172l-7.995-7.994c-1.561-1.562-1.561-4.091,0-5.652
		c1.562-1.562,4.091-1.562,5.652,0l7.995,7.994c1.561,1.562,1.561,4.092,0,5.652C258.302,327.347,257.277,327.738,256.255,327.738z"
		/>
	<path style="fill:#3A3847;" d="M256.255,327.738c-1.022,0-2.045-0.391-2.826-1.172c-1.562-1.561-1.562-4.091,0-5.652l7.995-7.994
		c1.561-1.562,4.092-1.562,5.652,0c1.562,1.562,1.562,4.091,0,5.652l-7.994,7.994C258.302,327.347,257.277,327.738,256.255,327.738z
		"/>
	<path style="fill:#3A3847;" d="M248.264,359.716c-0.148,0-0.296-0.007-0.445-0.022c-2.194-0.242-3.775-2.218-3.533-4.42
		l3.998-35.975c0.246-2.187,2.284-3.709,4.415-3.529c2.194,0.242,3.775,2.217,3.533,4.419l-3.997,35.976
		C252.008,358.201,250.275,359.716,248.264,359.716z"/>
	<path style="fill:#3A3847;" d="M264.242,359.716c-2.006,0-3.74-1.515-3.967-3.552l-3.997-35.976
		c-0.242-2.202,1.338-4.177,3.534-4.419c2.256-0.188,4.172,1.343,4.414,3.529l3.998,35.975c0.242,2.202-1.344,4.178-3.529,4.42
		C264.54,359.709,264.391,359.716,264.242,359.716z"/>
	<path style="fill:#3A3847;" d="M351.763,367.711H159.899c-2.209,0-3.997-1.788-3.997-3.998c0-2.209,1.788-3.997,3.997-3.997
		h191.863c2.209,0,3.996,1.788,3.996,3.997C355.759,365.923,353.971,367.711,351.763,367.711z"/>
	<path style="fill:#3A3847;" d="M103.859,423.712c-1.022,0-2.041-0.391-2.822-1.163c-1.565-1.562-1.565-4.092-0.008-5.66
		l39.864-39.973c1.561-1.562,4.091-1.555,5.652-0.008c1.565,1.561,1.565,4.09,0.008,5.66l-39.864,39.973
		C105.909,423.321,104.886,423.712,103.859,423.712z"/>
	<path style="fill:#3A3847;" d="M111.924,423.712h-8.065c-2.209,0-3.997-1.788-3.997-3.997c0-2.21,1.788-3.998,3.997-3.998h8.065
		c2.209,0,3.997,1.788,3.997,3.998C115.921,421.924,114.133,423.712,111.924,423.712z"/>
	<path style="fill:#3A3847;" d="M103.929,423.602c-2.209,0-3.997-1.788-3.997-3.997v-7.886c0-2.209,1.788-3.997,3.997-3.997
		c2.21,0,3.998,1.788,3.998,3.997v7.886C107.927,421.814,106.139,423.602,103.929,423.602z"/>
	<path style="fill:#3A3847;" d="M407.723,423.712c-1.023,0-2.053-0.391-2.834-1.171l-39.863-39.973
		c-1.555-1.57-1.555-4.1,0.008-5.66c1.561-1.547,4.098-1.555,5.66,0.008l39.863,39.973c1.553,1.568,1.553,4.099-0.008,5.66
		C409.768,423.321,408.747,423.712,407.723,423.712z"/>
	<path style="fill:#3A3847;" d="M407.723,423.712h-8.057c-2.209,0-3.998-1.788-3.998-3.997c0-2.21,1.789-3.998,3.998-3.998h8.057
		c2.209,0,3.998,1.788,3.998,3.998C411.721,421.924,409.932,423.712,407.723,423.712z"/>
	<path style="fill:#3A3847;" d="M407.661,423.602c-2.209,0-3.998-1.788-3.998-3.997v-7.886c0-2.209,1.789-3.997,3.998-3.997
		s3.998,1.788,3.998,3.997v7.886C411.659,421.814,409.87,423.602,407.661,423.602z"/>
	<path style="fill:#3A3847;" d="M143.722,167.886c-1.027,0-2.049-0.39-2.83-1.171l-39.864-39.973
		c-1.558-1.569-1.558-4.099,0.008-5.66c1.562-1.546,4.091-1.554,5.652,0.008l39.864,39.973c1.558,1.569,1.558,4.099-0.008,5.66
		C145.764,167.495,144.745,167.886,143.722,167.886z"/>
	<path style="fill:#3A3847;" d="M111.924,127.913h-8.065c-2.209,0-3.997-1.788-3.997-3.997c0-2.21,1.788-3.998,3.997-3.998h8.065
		c2.209,0,3.997,1.788,3.997,3.998C115.921,126.125,114.133,127.913,111.924,127.913z"/>
	<path style="fill:#3A3847;" d="M103.929,135.908c-2.209,0-3.997-1.788-3.997-3.998v-7.885c0-2.21,1.788-3.998,3.997-3.998
		c2.21,0,3.998,1.788,3.998,3.998v7.885C107.927,134.12,106.139,135.908,103.929,135.908z"/>
	<path style="fill:#3A3847;" d="M367.859,167.886c-1.023,0-2.045-0.39-2.826-1.163c-1.562-1.562-1.562-4.091-0.008-5.66
		l39.863-39.973c1.561-1.562,4.1-1.554,5.66-0.008c1.561,1.562,1.561,4.091,0.008,5.66l-39.863,39.973
		C369.913,167.495,368.884,167.886,367.859,167.886z"/>
	<path style="fill:#3A3847;" d="M407.723,127.913h-8.057c-2.209,0-3.998-1.788-3.998-3.997c0-2.21,1.789-3.998,3.998-3.998h8.057
		c2.209,0,3.998,1.788,3.998,3.998C411.721,126.125,409.932,127.913,407.723,127.913z"/>
	<path style="fill:#3A3847;" d="M407.661,135.908c-2.209,0-3.998-1.788-3.998-3.998v-7.885c0-2.21,1.789-3.998,3.998-3.998
		s3.998,1.788,3.998,3.998v7.885C411.659,134.12,409.87,135.908,407.661,135.908z"/>
	<path style="fill:#3A3847;" d="M336.257,48.007c-1.023,0-2.045-0.391-2.826-1.171l-5.699-5.691c-1.562-1.562-1.562-4.091,0-5.652
		c1.561-1.562,4.09-1.562,5.652,0l5.699,5.691c1.561,1.562,1.561,4.091,0,5.652C338.302,47.616,337.28,48.007,336.257,48.007z"/>
	<path style="fill:#3A3847;" d="M330.557,53.62c-1.023,0-2.045-0.391-2.826-1.171c-1.562-1.561-1.562-4.091,0-5.652l5.574-5.574
		c1.561-1.562,4.092-1.562,5.652,0c1.561,1.561,1.561,4.091,0,5.652l-5.574,5.574C332.602,53.229,331.581,53.62,330.557,53.62z"/>
	<path style="fill:#3A3847;" d="M181.572,53.784c-1.022,0-2.045-0.391-2.826-1.171l-5.691-5.691c-1.562-1.562-1.562-4.091,0-5.652
		c1.562-1.562,4.091-1.562,5.652,0l5.691,5.691c1.562,1.561,1.562,4.091,0,5.652C183.618,53.393,182.594,53.784,181.572,53.784z"/>
	<path style="fill:#3A3847;" d="M175.997,48.054c-1.022,0-2.045-0.391-2.826-1.171c-1.562-1.562-1.562-4.091,0-5.652l5.574-5.575
		c1.562-1.561,4.091-1.561,5.652,0c1.562,1.562,1.562,4.091,0,5.653l-5.574,5.574C178.043,47.663,177.02,48.054,175.997,48.054z"/>
	<path style="fill:#3A3847;" d="M336.257,48.093H175.88c-2.209,0-3.997-1.788-3.997-3.998s1.788-3.998,3.997-3.998h160.376
		c2.209,0,3.998,1.788,3.998,3.998S338.466,48.093,336.257,48.093z"/>
	<path style="fill:#3A3847;" d="M336.257,471.647c-1.023,0-2.045-0.39-2.826-1.171l-5.699-5.699c-1.562-1.562-1.562-4.091,0-5.652
		c1.561-1.562,4.09-1.562,5.652,0l5.699,5.699c1.561,1.562,1.561,4.091,0,5.652C338.302,471.258,337.28,471.647,336.257,471.647z"/>
	<path style="fill:#3A3847;" d="M330.557,477.254c-1.023,0-2.045-0.391-2.826-1.172c-1.562-1.562-1.562-4.091,0-5.652l5.574-5.574
		c1.561-1.562,4.092-1.562,5.652,0s1.561,4.091,0,5.652l-5.574,5.574C332.602,476.863,331.581,477.254,330.557,477.254z"/>
	<path style="fill:#3A3847;" d="M181.572,477.425c-1.022,0-2.049-0.39-2.83-1.171l-5.691-5.699
		c-1.558-1.562-1.558-4.091,0.004-5.652s4.095-1.562,5.656,0l5.691,5.699c1.558,1.562,1.558,4.091-0.004,5.652
		C183.618,477.035,182.594,477.425,181.572,477.425z"/>
	<path style="fill:#3A3847;" d="M175.997,471.694c-1.022,0-2.045-0.39-2.826-1.171c-1.562-1.562-1.562-4.091,0-5.652l5.574-5.574
		c1.562-1.562,4.091-1.562,5.652,0s1.562,4.091,0,5.652l-5.574,5.574C178.043,471.305,177.02,471.694,175.997,471.694z"/>
	<path style="fill:#3A3847;" d="M336.257,471.725H175.88c-2.209,0-3.997-1.788-3.997-3.997s1.788-3.997,3.997-3.997h160.376
		c2.209,0,3.998,1.788,3.998,3.997S338.466,471.725,336.257,471.725z"/>
	<path style="fill:#3A3847;" d="M455.721,336.014c-1.021,0-2.045-0.391-2.826-1.171c-1.561-1.562-1.561-4.091,0-5.652l5.699-5.691
		c1.562-1.562,4.092-1.562,5.652,0c1.562,1.562,1.562,4.091,0,5.652l-5.699,5.691C457.768,335.623,456.745,336.014,455.721,336.014z
		"/>
	<path style="fill:#3A3847;" d="M455.69,335.896c-1.021,0-2.045-0.391-2.826-1.171l-5.574-5.574c-1.561-1.562-1.561-4.091,0-5.652
		c1.562-1.562,4.092-1.562,5.652,0l5.574,5.574c1.562,1.562,1.562,4.091,0,5.652C457.737,335.506,456.714,335.896,455.69,335.896z"
		/>
	<path style="fill:#3A3847;" d="M449.944,189.324c-1.021,0-2.045-0.39-2.826-1.171c-1.561-1.562-1.561-4.091,0-5.652l5.699-5.691
		c1.562-1.562,4.092-1.562,5.652,0c1.562,1.562,1.562,4.091,0,5.652l-5.699,5.691C451.991,188.934,450.967,189.324,449.944,189.324z
		"/>
	<path style="fill:#3A3847;" d="M461.249,189.324c-1.021,0-2.045-0.39-2.826-1.171l-5.574-5.574c-1.561-1.562-1.561-4.091,0-5.652
		c1.562-1.562,4.092-1.562,5.652,0l5.574,5.574c1.562,1.562,1.562,4.091,0,5.652C463.296,188.934,462.272,189.324,461.249,189.324z"
		/>
	<path style="fill:#3A3847;" d="M455.643,336.014c-2.209,0-3.996-1.788-3.996-3.997V179.636c0-2.209,1.787-3.997,3.996-3.997
		c2.211,0,3.998,1.788,3.998,3.997v152.38C459.641,334.225,457.854,336.014,455.643,336.014z"/>
	<path style="fill:#3A3847;" d="M56.001,336.014c-1.023,0-2.05-0.391-2.831-1.171c-1.557-1.562-1.557-4.091,0.004-5.652l5.7-5.691
		c1.561-1.562,4.095-1.562,5.656,0c1.557,1.562,1.557,4.091-0.004,5.652l-5.699,5.691C58.046,335.623,57.024,336.014,56.001,336.014
		z"/>
	<path style="fill:#3A3847;" d="M55.97,335.896c-1.023,0-2.046-0.391-2.826-1.171l-5.575-5.574c-1.562-1.562-1.562-4.091,0-5.652
		s4.091-1.562,5.652,0l5.575,5.574c1.561,1.562,1.561,4.091,0,5.652C58.015,335.506,56.993,335.896,55.97,335.896z"/>
	<path style="fill:#3A3847;" d="M50.224,189.324c-1.023,0-2.05-0.39-2.83-1.171c-1.558-1.562-1.558-4.091,0.004-5.652l5.699-5.691
		c1.561-1.562,4.095-1.562,5.656,0c1.558,1.562,1.558,4.091-0.004,5.652l-5.699,5.691C52.269,188.934,51.246,189.324,50.224,189.324
		z"/>
	<path style="fill:#3A3847;" d="M61.529,189.324c-1.023,0-2.046-0.39-2.826-1.171l-5.574-5.574c-1.562-1.562-1.562-4.091,0-5.652
		c1.561-1.562,4.091-1.562,5.652,0l5.574,5.574c1.562,1.562,1.562,4.091,0,5.652C63.574,188.934,62.551,189.324,61.529,189.324z"/>
	<path style="fill:#3A3847;" d="M55.923,336.014c-2.21,0-3.998-1.788-3.998-3.997V179.636c0-2.209,1.788-3.997,3.998-3.997
		c2.209,0,3.997,1.788,3.997,3.997v152.38C59.92,334.225,58.132,336.014,55.923,336.014z"/>
</g>
<g>
</g>
<g>
</g>
<g>
</g>
<g>
</g>
<g>
</g>
<g>
</g>
<g>
</g>
<g>
</g>
<g>
</g>
<g>
</g>
<g>
</g>
<g>
</g>
<g>
</g>
<g>
</g>
<g>
</g>
</svg>
