<?xml version="1.0" encoding="iso-8859-1"?>
<!-- Generator: Adobe Illustrator 19.0.0, SVG Export Plug-In . SVG Version: 6.00 Build 0)  -->
<svg version="1.1" id="Capa_1" xmlns="http://www.w3.org/2000/svg" xmlns:xlink="http://www.w3.org/1999/xlink" x="0px" y="0px"
	 viewBox="0 0 517.967 517.967" style="enable-background:new 0 0 517.967 517.967;" xml:space="preserve">
<path style="fill:#344A5E;" d="M44.697,517.967H194.03c3.2-34.133,5.333-88.533-10.667-123.733
	c-24.533-56.533-133.333-22.4-142.933-18.133c0,0-6.4,50.133-6.4,76.8C34.03,467.834,40.43,495.567,44.697,517.967z"/>
<path style="fill:#F3705A;" d="M122.563,57.167c-14.933,0-27.733,6.4-36.267,16v53.333c8.533,9.6,22.4,16,36.267,16
	c17.067,0,33.067-8.533,40.533-21.333V78.501C154.563,65.701,139.63,57.167,122.563,57.167z"/>
<path id="SVGCleanerId_0" style="fill:#FFD15C;" d="M160.963,149.967l-9.6,58.667l-65.067,2.133l-5.333-56.533l21.333-14.933l0,0
	c1.067-4.267,0-8.533-2.133-11.733c-4.267-7.467-10.667-21.333-11.733-39.467c-3.2-29.867-3.2-29.867-3.2-29.867
	s35.2-28.8,50.133-19.2s19.2,29.867,19.2,29.867s-1.067,32-4.267,42.667c-3.2,11.733-4.267,13.867-4.267,13.867L160.963,149.967z"/>
<g>
	<path id="SVGCleanerId_0_1_" style="fill:#FFD15C;" d="M160.963,149.967l-9.6,58.667l-65.067,2.133l-5.333-56.533l21.333-14.933
		l0,0c1.067-4.267,0-8.533-2.133-11.733c-4.267-7.467-10.667-21.333-11.733-39.467c-3.2-29.867-3.2-29.867-3.2-29.867
		s35.2-28.8,50.133-19.2s19.2,29.867,19.2,29.867s-1.067,32-4.267,42.667c-3.2,11.733-4.267,13.867-4.267,13.867L160.963,149.967z"
		/>
</g>
<path style="fill:#F7B64C;" d="M100.163,127.567c0,0,6.4,16,20.267,14.933c13.867-1.067,23.467-13.867,25.6-17.067
	c0,0-1.067,21.333-23.467,32c-22.4,10.667-39.467,7.467-39.467,7.467L100.163,127.567z"/>
<path style="fill:#F3F3F3;" d="M82.03,181.967c22.4,12.8,45.867,8.533,75.733-2.133l-16,189.867
	c-18.133,7.467-69.333,10.667-82.133-2.133L82.03,181.967z"/>
<ellipse style="fill:#66C6B9;" cx="45.763" cy="270.501" rx="13.867" ry="39.467"/>
<path style="fill:#344A5E;" d="M56.43,205.434l-12.8,50.133l-14.933-2.133c0,0,10.667-58.667,11.733-74.667
	c1.067-14.933,11.733-22.4,11.733-22.4L56.43,205.434z"/>
<path style="fill:#4ABAA5;" d="M83.097,146.767c0,0-18.133,6.4-23.467,7.467c-5.333,1.067-13.867,4.267-13.867,17.067
	s0,33.067-1.067,45.867s3.2,104.533-3.2,132.267c-6.4,27.733-9.6,43.733-9.6,43.733s16,14.933,39.467,7.467
	c0,0,27.733-20.267,22.4-86.4c-5.333-66.133-12.8-97.067-12.8-122.667C82.03,167.034,83.097,146.767,83.097,146.767z"/>
<path style="fill:#66C6B9;" d="M87.363,146.767l-7.467,24.533c0,0-17.067,33.067-4.267,71.467s18.133,56.533,18.133,72.533
	c0,0,3.2-13.867-1.067-36.267c-4.267-22.4-7.467-53.333,0-92.8S87.363,146.767,87.363,146.767z"/>
<path style="fill:#4ABAA5;" d="M158.83,142.501c0,0,35.2,13.867,56.533,18.133s-20.267,247.467-20.267,247.467l-51.2,3.2
	c-18.133-3.2-29.867-9.6-36.267-19.2c0,0-16-41.6,0-128C117.23,217.167,158.83,161.701,158.83,142.501z"/>
<path style="fill:#FFD15C;" d="M96.963,297.167c0,0,19.2-2.133,27.733-4.267c8.533-2.133,23.467-6.4,23.467-6.4l5.333,32
	c0,0-25.6,2.133-36.267,6.4s-30.933,5.333-30.933,5.333L96.963,297.167z"/>
<path style="fill:#66C6B9;" d="M148.163,133.967c0,0,4.267,19.2-2.133,37.333s-36.267,64-38.4,92.8c0,0,5.333-19.2,12.8-28.8
	c7.467-9.6,49.067-50.133,49.067-50.133l-8.533-12.8l10.667-3.2c0,0-2.133-17.067-6.4-22.4
	C162.03,140.367,149.23,136.101,148.163,133.967z"/>
<path style="fill:#F3705A;" d="M127.897,46.501c0,0-16-4.267-24.533,7.467s-13.867,40.533-13.867,52.267s16,22.4,17.067,40.533
	c0,18.133-19.2,28.8-23.467,53.333c-4.267,23.467,0,33.067,0,33.067s-14.933-22.4-13.867-36.267c0-13.867,3.2-25.6,0-42.667
	c-3.2-17.067-8.533-39.467-3.2-64c5.333-24.533,21.333-82.133,64-69.333c0,0,13.867-6.4,23.467,16s13.867,34.133,16,48
	s0,68.267,4.267,83.2c4.267,14.933,12.8,34.133,12.8,34.133s-20.267-24.533-24.533-35.2c-4.267-10.667-14.933-39.467-14.933-41.6
	c0,0,9.6-19.2,8.533-36.267C154.563,72.101,136.43,52.901,127.897,46.501z"/>
<path style="fill:#66C6B9;" d="M98.03,304.634c-3.2,8.533-3.2,39.467-3.2,39.467s0,0-1.067,0c-4.267,0-30.933-2.133-51.2-4.267
	c-13.867-1.067-24.533-2.133-26.667-2.133c-5.333-1.067-10.667-8.533-11.733-20.267c-2.133-12.8-1.067-22.4,0-33.067
	s9.6-37.333,11.733-42.667c2.133-5.333,2.133-13.867,3.2-18.133c1.067-4.267,7.467-29.867,14.933-45.867s18.133-20.267,19.2-20.267
	c-4.267,2.133-7.467,6.4-7.467,13.867c0,13.867,0,33.067-1.067,45.867c-1.067,4.267,0,19.2,0,38.4l0,0l-3.2,38.4h3.2l46.933,1.067
	h10.667C102.297,296.101,102.297,296.101,98.03,304.634z"/>
<path style="fill:#F3705A;" d="M407.363,128.634c-2.133,10.667-5.333,20.267-9.6,29.867c-1.067,2.133-2.133,5.333-3.2,8.533
	c-1.067,2.133-2.133,5.333-4.267,7.467c0,1.067-1.067,1.067-1.067,2.133s-1.067,1.067-1.067,2.133c-1.067,1.067-2.133,2.133-3.2,3.2
	c-1.067,1.067-2.133,2.133-3.2,3.2c-1.067,1.067-1.067,2.133-2.133,3.2c-1.067,2.133-2.133,5.333-3.2,7.467
	c-1.067,5.333-2.133,10.667-2.133,14.933s0,7.467,0,10.667c0,2.133,0,4.267,0,4.267s0-1.067,0-4.267c0-2.133,0-6.4,0-10.667
	s0-9.6,1.067-14.933c1.067-3.2,1.067-5.333,2.133-8.533c1.067-1.067,1.067-3.2,2.133-4.267c1.067-1.067,2.133-2.133,3.2-3.2
	l1.067-1.067c-3.2,2.133-5.333,4.267-7.467,7.467c-2.133,3.2-3.2,6.4-3.2,10.667c-4.267,19.2-13.867,37.333-27.733,51.2
	c2.133-9.6,0-21.333,3.2-30.933c1.067-4.267,4.267-8.533,5.333-12.8c1.067-2.133,1.067-5.333,2.133-8.533
	c3.2-17.067,7.467-34.133,16-50.133c2.133-3.2,4.267-7.467,5.333-10.667c2.133-5.333,3.2-11.733,4.267-17.067
	c1.067-6.4,2.133-13.867,3.2-20.267l17.067-3.2C408.43,105.167,409.497,116.901,407.363,128.634z"/>
<path style="fill:#FFD15C;" d="M398.83,43.301c0,0-11.733,11.733-13.867,16c-1.067,4.267-2.133,17.067-2.133,17.067
	s2.133,9.6,1.067,11.733c-1.067,3.2-1.067,20.267,5.333,32c6.4,11.733,10.667,19.2,12.8,21.333
	c-10.667,23.467-17.067,55.467-20.267,90.667l1.067,16l66.133-97.067l19.2-74.667l-41.6-36.267L398.83,43.301z"/>
<path style="fill:#F7B64C;" d="M425.497,137.167c-14.933,10.667-24.533,4.267-24.533,4.267l-4.267,19.2
	c30.933-8.533,45.867-37.333,45.867-37.333S440.43,126.501,425.497,137.167z"/>
<path style="fill:#344A5E;" d="M338.03,517.967h132.267c5.333-27.733,14.933-90.667,8.533-129.067
	c-8.533-49.067,8.533-188.8,8.533-188.8s-29.867-51.2-48-55.467c0,0-28.8,59.733-48,90.667c0,0-11.733-28.8-7.467-39.467
	c4.267-10.667,5.333-30.933,4.267-39.467c-1.067-8.533,9.6-8.533,9.6-8.533s-5.333,3.2-12.8,5.333l0,0
	c-3.2,26.667-22.4,49.067-32,73.6c-5.333,12.8-9.6,26.667-11.733,39.467c-2.133,10.667-5.333,22.4-9.6,32
	c0,36.267-1.067,70.4-3.2,80c0,0,0,75.733,4.267,102.4C333.763,495.567,335.897,508.367,338.03,517.967z"/>
<g>
	<path style="fill:#4ABAA5;" d="M410.563,408.101c-7.467,0-13.867-5.333-13.867-13.867c-1.067-22.4-3.2-76.8-6.4-89.6
		c-4.267-16,6.4-90.667,9.6-100.267c4.267-9.6,39.467-60.8,39.467-60.8s45.867,17.067,55.467,22.4c9.6,5.333,9.6,5.333,9.6,5.333
		s-33.067,110.933-21.333,142.933s13.867,74.667,13.867,74.667C469.23,400.634,440.43,407.034,410.563,408.101z"/>
	<path style="fill:#4ABAA5;" d="M396.697,159.567c0,0-7.467,25.6-8.533,45.867c0,20.267-18.133,68.267-19.2,86.4
		c-1.067,13.867-6.4,48-16,74.667c-4.267,10.667-19.2,12.8-25.6,2.133l-19.2-32c0,0,24.533-151.467,41.6-169.6
		C367.897,149.967,396.697,159.567,396.697,159.567z"/>
</g>
<path style="fill:#F3705A;" d="M411.63,47.567c0,0,27.733,7.467,30.933,17.067c3.2,9.6,3.2,18.133,5.333,20.267
	s8.533-7.467,10.667-5.333c3.2,2.133,3.2,17.067-5.333,25.6s-11.733,22.4-13.867,38.4s1.067,23.467-2.133,27.733
	c-3.2,4.267-16,33.067-18.133,41.6c-1.067,8.533,2.133,24.533,7.467,37.333c5.333,12.8,3.2,25.6,3.2,25.6s10.667-21.333,9.6-29.867
	c0-8.533-4.267-14.933-2.133-24.533c3.2-9.6,23.467-42.667,24.533-49.067s10.667-20.267,11.733-44.8s-2.133-61.867-10.667-78.933
	c-9.6-17.067-22.4-23.467-37.333-21.333c0,0-7.467-5.333-23.467,4.267c-14.933,9.6-21.333,33.067-20.267,45.867
	c0,0,1.067-9.6,3.2-16C388.163,53.967,396.697,46.501,411.63,47.567z"/>
<ellipse transform="matrix(-0.9748 -0.223 0.223 -0.9748 879.4765 275.5256)" style="fill:#FFD15C;" cx="455.295" cy="88.106" rx="7.467" ry="11.733"/>
<path style="fill:#F3705A;" d="M374.297,143.567c0,1.067-1.067,1.067-1.067,2.133c-8.533,14.933-12.8,33.067-16,50.133
	c-1.067,3.2-1.067,5.333-2.133,8.533c-1.067,4.267-4.267,8.533-5.333,12.8c-3.2,9.6-1.067,21.333-3.2,30.933
	c13.867-13.867,23.467-32,27.733-51.2c1.067-3.2,2.133-7.467,3.2-10.667c2.133-3.2,5.333-5.333,7.467-7.467l-1.067,1.067
	c-1.067,1.067-2.133,2.133-3.2,3.2c-1.067,1.067-1.067,2.133-2.133,4.267c-1.067,2.133-2.133,5.333-2.133,7.467
	c-1.067,5.333-1.067,10.667-1.067,14.933s0,8.533,0,10.667c0,2.133,0,4.267,0,4.267s0-1.067,0-4.267c0-2.133,0-6.4,0-10.667
	s1.067-9.6,2.133-14.933c1.067-2.133,1.067-5.333,3.2-7.467c1.067-1.067,1.067-2.133,2.133-3.2c1.067-1.067,2.133-2.133,3.2-3.2
	c1.067-1.067,2.133-2.133,3.2-3.2c0-1.067,1.067-1.067,1.067-2.133c0-1.067,1.067-1.067,1.067-2.133
	c2.133-2.133,3.2-5.333,4.267-7.467c1.067-3.2,2.133-5.333,3.2-8.533c2.133-5.333,3.2-12.8,3.2-17.067L374.297,143.567z"/>
<path style="fill:#66C6B9;" d="M446.83,223.567c0,0,1.067-18.133,20.267-37.333s26.667-20.267,39.467-18.133
	c11.733,3.2,8.533,24.533,6.4,38.4c-3.2,13.867-2.133,34.133-9.6,44.8c-7.467,10.667-14.933,26.667-19.2,34.133
	c-4.267,7.467-27.733,35.2-34.133,42.667s-16,17.067-28.8,17.067c-12.8,0-50.133-1.067-50.133-1.067s-8.533-22.4,0-37.333
	c0,0,29.867-1.067,33.067-1.067c3.2,0,4.267-2.133,5.333-4.267c1.067-2.133,4.267-2.133,6.4-5.333s13.867-20.267,14.933-22.4
	C431.897,272.634,446.83,231.034,446.83,223.567z"/>
<path style="fill:#FFD15C;" d="M298.563,82.767c0,0-3.2,18.133-7.467,25.6v40.533l-29.867,29.867l-33.067-34.133v-33.067
	c0,0-6.4-21.333-6.4-33.067s-3.2-24.533,0-34.133s5.333-25.6,12.8-28.8s52.267-3.2,56.533,0c6.4,4.267,10.667,20.267,10.667,26.667
	S298.563,82.767,298.563,82.767z"/>
<path style="fill:#F7B64C;" d="M264.43,131.834c-16,4.267-34.133-17.067-36.267-19.2v33.067c12.8,2.133,55.467,4.267,62.933-37.333
	C291.097,108.367,280.43,128.634,264.43,131.834z"/>
<g>
	
		<ellipse transform="matrix(-0.9925 -0.1219 0.1219 -0.9925 589.8048 186.6258)" style="fill:#FFD15C;" cx="300.611" cy="75.271" rx="6.4" ry="15.999"/>
	
		<ellipse transform="matrix(0.9925 -0.1219 0.1219 0.9925 -7.4501 27.458)" style="fill:#FFD15C;" cx="220.675" cy="74.615" rx="6.4" ry="15.999"/>
</g>
<path style="fill:#415A6B;" d="M220.697,68.901h2.133c0,0-2.133-14.933,1.067-19.2c3.2-4.267,5.333-14.933,5.333-20.267
	s3.2-10.667,9.6-10.667c6.4,0,43.733,4.267,50.133,2.133s8.533,4.267,8.533,8.533s-1.067,14.933,1.067,19.2
	c2.133,4.267,0,19.2,0,19.2h2.133c0,0,4.267-12.8,4.267-22.4s-2.133-30.933-24.533-41.6s-44.8,3.2-53.333,13.867
	C218.563,27.301,217.497,56.101,220.697,68.901z"/>
<path style="fill:#CED6E0;" d="M295.363,138.234c0,0,17.067,8.533,32,11.733c13.867,3.2,48,16,51.2,22.4
	c4.267,6.4,4.267,6.4,4.267,6.4s-24.533,181.333-26.667,199.467c-2.133,18.133-17.067,50.133-17.067,50.133
	s-29.867,29.867-69.333,29.867c-40.533,0-87.467-21.333-93.867-33.067c-6.4-11.733-11.733-43.733-9.6-55.467
	c2.133-11.733-22.4-174.933-22.4-174.933s3.2-12.8,21.333-22.4c19.2-9.6,51.2-24.533,56.533-27.733s4.267-1.067,4.267-1.067
	l18.133,20.267l11.733-1.067l5.333-1.067l23.467-3.2L295.363,138.234z"/>
<g>
	<path style="fill:#F3705A;" d="M246.297,169.167c10.667-4.267,22.4-3.2,35.2,0c-6.4,7.467-10.667,13.867-14.933,21.333
		c-4.267-2.133-9.6-2.133-14.933,0c-1.067-8.533-2.133-12.8-8.533-18.133"/>
	<path style="fill:#F3705A;" d="M263.363,184.101l2.133,7.467c0,0,3.2,21.333,3.2,33.067c0,10.667-9.6,206.933-9.6,206.933
		s-16,14.933-16,13.867c0-1.067-10.667-14.933-10.667-14.933s10.667-160,13.867-193.067s4.267-44.8,4.267-44.8L263.363,184.101z"/>
</g>
<g>
	<path style="fill:#F3F3F3;" d="M291.097,129.701c0,0-1.067,12.8-28.8,30.933c0,0,9.6,10.667,11.733,17.067
		c2.133,6.4,3.2,7.467,3.2,7.467s14.933-21.333,19.2-28.8c3.2-6.4,3.2-14.933,2.133-19.2
		C296.43,135.034,291.097,129.701,291.097,129.701z"/>
	<path style="fill:#F3F3F3;" d="M258.03,161.701c0,0-10.667,11.733-13.867,24.533c0,0-11.733-14.933-13.867-18.133
		c-2.133-3.2-11.733-18.133-2.133-34.133C228.163,133.967,235.63,152.101,258.03,161.701z"/>
	<path style="fill:#F3F3F3;" d="M367.897,163.834c0,0-9.6,20.267-19.2,49.067c-9.6,28.8-14.933,65.067-14.933,72.533
		s0,22.4,0,24.533s-1.067,1.067-5.333,1.067s-37.333,1.067-51.2,2.133c-13.867,1.067-32,3.2-32,3.2s-2.133,20.267,0,35.2l33.067,9.6
		c0,0,2.133,4.267,10.667,4.267s17.067-1.067,28.8-3.2c11.733-1.067,43.733,2.133,50.133,1.067
		c6.4-1.067,18.133-23.467,21.333-40.533c4.267-17.067,11.733-91.733,1.067-128C379.63,159.567,367.897,163.834,367.897,163.834z"/>
</g>
<path style="fill:#FFD15C;" d="M276.163,291.834c0,0,19.2-2.133,26.667-5.333c7.467-3.2,19.2-4.267,24.533-7.467
	c5.333-3.2,13.867-5.333,18.133-6.4c4.267-1.067,9.6-4.267,12.8-5.333c3.2-1.067,5.333-1.067,9.6-1.067s20.267-1.067,21.333,3.2
	s-4.267,6.4-6.4,6.4s-12.8,0-17.067,1.067c-4.267,1.067-11.733,4.267-11.733,4.267s9.6-1.067,13.867-1.067
	c4.267,0,6.4,1.067,10.667,1.067c4.267,0,11.733,2.133,11.733,2.133s5.333,0,5.333,5.333s-4.267,4.267-8.533,3.2
	c-4.267-1.067-10.667-2.133-13.867-2.133s-8.533,0-8.533,0s9.6,1.067,12.8,2.133c3.2,1.067,7.467,2.133,10.667,2.133
	s6.4,2.133,5.333,6.4s-5.333,3.2-8.533,2.133c-3.2-1.067-10.667-2.133-14.933-2.133c-4.267,0-18.133,0-18.133,0h1.067
	c0,0,19.2,0,24.533,1.067c4.267,1.067,6.4,1.067,6.4,4.267c0,3.2-4.267,3.2-7.467,3.2s-19.2,0-23.467,1.067
	c-4.267,2.133-12.8,4.267-22.4,4.267c-10.667,0-24.533,0-32,3.2c-6.4,3.2-17.067,7.467-17.067,7.467L276.163,291.834z"/>
<path style="fill:#F3F3F3;" d="M184.43,234.234c0,0,9.6-55.467-28.8-56.533c-21.333-1.067-21.333,61.867-23.467,77.867
	c-1.067,16-2.133,53.333,6.4,80s18.133,28.8,30.933,27.733c12.8-1.067,51.2-6.4,64-11.733c12.8-4.267,55.467-25.6,55.467-25.6
	s-11.733-25.6-10.667-34.133c0,0-32,8.533-33.067,8.533c-2.133,0-10.667-4.267-19.2-3.2c-9.6,2.133-41.6,4.267-41.6,4.267
	s7.467-28.8,4.267-44.8S184.43,234.234,184.43,234.234z"/>
<path style="fill:#FFD15C;" d="M184.43,301.434c0,0-10.667,2.133-13.867,2.133c-3.2,0-13.867-2.133-16-3.2
	c-2.133-1.067-4.267-7.467,1.067-7.467s8.533,3.2,17.067,3.2c8.533,1.067,8.533,1.067,8.533,1.067s-2.133-1.067-4.267-2.133
	c-2.133-1.067-11.733-3.2-13.867-3.2s-14.933-1.067-17.067-2.133c-2.133-1.067-4.267-2.133-3.2-5.333c1.067-3.2,3.2-3.2,7.467-3.2
	c4.267,1.067,8.533,1.067,12.8,1.067s9.6,1.067,12.8,2.133c3.2,1.067,7.467,2.133,7.467,2.133s-3.2-2.133-4.267-2.133
	c-1.067,0-8.533-3.2-9.6-4.267c-1.067,0-18.133-2.133-18.133-2.133s-8.533,0-8.533-5.333c0-5.333,13.867-4.267,16-3.2
	c2.133,0,16,1.067,16,1.067s-9.6-2.133-11.733-3.2c-1.067,0-11.733,1.067-9.6-8.533h11.733c0,0,5.333,1.067,8.533,1.067
	c3.2,1.067,8.533,2.133,10.667,3.2s16,11.733,16,11.733s3.2,2.133,5.333,5.333c2.133,3.2,11.733,18.133,11.733,18.133
	L184.43,301.434z"/>
<path style="fill:#415A6B;" d="M361.497,517.967c0-4.267,1.067-9.6,1.067-18.133c2.133-24.533-19.2-83.2-19.2-83.2
	c-58.667,42.667-115.2,39.467-171.733,0c0,0-5.333,43.733-10.667,64c-2.133,9.6-2.133,23.467-2.133,36.267L361.497,517.967
	L361.497,517.967z"/>
<g>
</g>
<g>
</g>
<g>
</g>
<g>
</g>
<g>
</g>
<g>
</g>
<g>
</g>
<g>
</g>
<g>
</g>
<g>
</g>
<g>
</g>
<g>
</g>
<g>
</g>
<g>
</g>
<g>
</g>
</svg>
